<?xml version="1.0" encoding="utf-8"?>
<!-- Generator: Adobe Illustrator 26.0.2, SVG Export Plug-In . SVG Version: 6.00 Build 0)  -->
<svg version="1.1" id="Ebene_1" xmlns="http://www.w3.org/2000/svg" xmlns:xlink="http://www.w3.org/1999/xlink" x="0px" y="0px"
	 viewBox="0 0 686 140" style="enable-background:new 0 0 686 140;" xml:space="preserve">
<style type="text/css">
	.st0{fill:#FFFFFF;}
	.st1{fill:none;stroke:#EAE4DD;stroke-width:6.4019;stroke-linejoin:round;stroke-miterlimit:10;}
	.st2{fill:none;stroke:#BE232D;stroke-width:6.4019;stroke-linejoin:round;stroke-miterlimit:10;}
	.st3{fill:none;stroke:#000000;stroke-miterlimit:10;}
	.st4{font-family:'TimesLTStd-Roman';}
	.st5{font-size:12px;}
</style>
<g id="surface1">
	<rect y="32.5" class="st0" width="686" height="75"/>
	<path class="st1" d="M31.2,104.1V35.9"/>
	<path class="st1" d="M31.5,104.1V35.9"/>
	<path class="st1" d="M31.9,104.1V35.9"/>
	<path class="st1" d="M32.2,104.1V35.9"/>
	<path class="st1" d="M32.5,104.1V35.9"/>
	<path class="st1" d="M32.9,104.1V35.9"/>
	<path class="st1" d="M33.2,104.1V35.9"/>
	<path class="st1" d="M33.5,104.1V35.9"/>
	<path class="st1" d="M33.9,104.1V35.9"/>
	<path class="st1" d="M34.2,104.1V35.9"/>
	<path class="st1" d="M34.5,104.1V35.9"/>
	<path class="st1" d="M34.9,104.1V35.9"/>
	<path class="st1" d="M35.2,104.1V35.9"/>
	<path class="st1" d="M35.5,104.1V35.9"/>
	<path class="st1" d="M35.9,104.1V35.9"/>
	<path class="st1" d="M36.2,104.1V35.9"/>
	<path class="st1" d="M36.5,104.1V35.9"/>
	<path class="st1" d="M36.9,104.1V35.9"/>
	<path class="st1" d="M37.2,104.1V35.9"/>
	<path class="st1" d="M37.5,104.1V35.9"/>
	<path class="st1" d="M37.9,104.1V35.9"/>
	<path class="st1" d="M38.2,104.1V35.9"/>
	<path class="st1" d="M38.6,104.1V35.9"/>
	<path class="st1" d="M38.9,104.1V35.9"/>
	<path class="st1" d="M39.2,104.1V35.9"/>
	<path class="st1" d="M39.6,104.1V35.9"/>
	<path class="st1" d="M39.9,104.1V35.9"/>
	<path class="st1" d="M40.2,104.1V35.9"/>
	<path class="st1" d="M40.6,104.1V35.9"/>
	<path class="st1" d="M40.9,104.1V35.9"/>
	<path class="st1" d="M41.2,104.1V35.9"/>
	<path class="st1" d="M41.6,104.1V35.9"/>
	<path class="st1" d="M41.9,104.1V35.9"/>
	<path class="st1" d="M42.2,104.1V35.9"/>
	<path class="st1" d="M42.6,104.1V35.9"/>
	<path class="st1" d="M42.9,104.1V35.9"/>
	<path class="st1" d="M43.2,104.1V35.9"/>
	<path class="st1" d="M43.6,104.1V35.9"/>
	<path class="st1" d="M43.9,104.1V35.9"/>
	<path class="st1" d="M44.2,104.1V35.9"/>
	<path class="st1" d="M44.6,104.1V35.9"/>
	<path class="st1" d="M44.9,104.1V35.9"/>
	<path class="st2" d="M45.2,104.1V35.9"/>
	<path class="st1" d="M45.6,104.1V35.9"/>
	<path class="st1" d="M45.9,104.1V35.9"/>
	<path class="st1" d="M46.3,104.1V35.9"/>
	<path class="st1" d="M46.6,104.1V35.9"/>
	<path class="st1" d="M46.9,104.1V35.9"/>
	<path class="st2" d="M47.3,104.1V35.9"/>
	<path class="st1" d="M47.6,104.1V35.9"/>
	<path class="st1" d="M47.9,104.1V35.9"/>
	<path class="st1" d="M48.3,104.1V35.9"/>
	<path class="st1" d="M48.6,104.1V35.9"/>
	<path class="st1" d="M48.9,104.1V35.9"/>
	<path class="st1" d="M49.3,104.1V35.9"/>
	<path class="st1" d="M49.6,104.1V35.9"/>
	<path class="st1" d="M49.9,104.1V35.9"/>
	<path class="st1" d="M50.3,104.1V35.9"/>
	<path class="st1" d="M50.6,104.1V35.9"/>
	<path class="st1" d="M50.9,104.1V35.9"/>
	<path class="st1" d="M51.3,104.1V35.9"/>
	<path class="st1" d="M51.6,104.1V35.9"/>
	<path class="st1" d="M51.9,104.1V35.9"/>
	<path class="st1" d="M52.3,104.1V35.9"/>
	<path class="st1" d="M52.6,104.1V35.9"/>
	<path class="st1" d="M53,104.1V35.9"/>
	<path class="st1" d="M53.3,104.1V35.9"/>
	<path class="st1" d="M53.6,104.1V35.9"/>
	<path class="st1" d="M54,104.1V35.9"/>
	<path class="st1" d="M54.3,104.1V35.9"/>
	<path class="st1" d="M54.6,104.1V35.9"/>
	<path class="st1" d="M55,104.1V35.9"/>
	<path class="st1" d="M55.3,104.1V35.9"/>
	<path class="st1" d="M55.6,104.1V35.9"/>
	<path class="st1" d="M56,104.1V35.9"/>
	<path class="st1" d="M56.3,104.1V35.9"/>
	<path class="st1" d="M56.6,104.1V35.9"/>
	<path class="st1" d="M57,104.1V35.9"/>
	<path class="st1" d="M57.3,104.1V35.9"/>
	<path class="st1" d="M57.6,104.1V35.9"/>
	<path class="st1" d="M58,104.1V35.9"/>
	<path class="st1" d="M58.3,104.1V35.9"/>
	<path class="st1" d="M58.6,104.1V35.9"/>
	<path class="st1" d="M59,104.1V35.9"/>
	<path class="st1" d="M59.3,104.1V35.9"/>
	<path class="st1" d="M59.7,104.1V35.9"/>
	<path class="st1" d="M60,104.1V35.9"/>
	<path class="st1" d="M60.3,104.1V35.9"/>
	<path class="st1" d="M60.7,104.1V35.9"/>
	<path class="st1" d="M61,104.1V35.9"/>
	<path class="st1" d="M61.3,104.1V35.9"/>
	<path class="st1" d="M61.7,104.1V35.9"/>
	<path class="st1" d="M62,104.1V35.9"/>
	<path class="st1" d="M62.3,104.1V35.9"/>
	<path class="st1" d="M62.7,104.1V35.9"/>
	<path class="st1" d="M63,104.1V35.9"/>
	<path class="st1" d="M63.3,104.1V35.9"/>
	<path class="st1" d="M63.7,104.1V35.9"/>
	<path class="st1" d="M64,104.1V35.9"/>
	<path class="st1" d="M64.3,104.1V35.9"/>
	<path class="st1" d="M64.7,104.1V35.9"/>
	<path class="st1" d="M65,104.1V35.9"/>
	<path class="st1" d="M65.3,104.1V35.9"/>
	<path class="st1" d="M65.7,104.1V35.9"/>
	<path class="st1" d="M66,104.1V35.9"/>
	<path class="st1" d="M66.3,104.1V35.9"/>
	<path class="st1" d="M66.7,104.1V35.9"/>
	<path class="st1" d="M67,104.1V35.9"/>
	<path class="st1" d="M67.4,104.1V35.9"/>
	<path class="st1" d="M67.7,104.1V35.9"/>
	<path class="st1" d="M68,104.1V35.9"/>
	<path class="st1" d="M68.4,104.1V35.9"/>
	<path class="st1" d="M68.7,104.1V35.9"/>
	<path class="st1" d="M69,104.1V35.9"/>
	<path class="st1" d="M69.4,104.1V35.9"/>
	<path class="st1" d="M69.7,104.1V35.9"/>
	<path class="st1" d="M70,104.1V35.9"/>
	<path class="st1" d="M70.4,104.1V35.9"/>
	<path class="st1" d="M70.7,104.1V35.9"/>
	<path class="st1" d="M71,104.1V35.9"/>
	<path class="st1" d="M71.4,104.1V35.9"/>
	<path class="st1" d="M71.7,104.1V35.9"/>
	<path class="st1" d="M72,104.1V35.9"/>
	<path class="st1" d="M72.4,104.1V35.9"/>
	<path class="st1" d="M72.7,104.1V35.9"/>
	<path class="st1" d="M73,104.1V35.9"/>
	<path class="st1" d="M73.4,104.1V35.9"/>
	<path class="st1" d="M73.7,104.1V35.9"/>
	<path class="st1" d="M74.1,104.1V35.9"/>
	<path class="st1" d="M74.4,104.1V35.9"/>
	<path class="st1" d="M74.7,104.1V35.9"/>
	<path class="st1" d="M75.1,104.1V35.9"/>
	<path class="st1" d="M75.4,104.1V35.9"/>
	<path class="st1" d="M75.7,104.1V35.9"/>
	<path class="st1" d="M76.1,104.1V35.9"/>
	<path class="st1" d="M76.4,104.1V35.9"/>
	<path class="st1" d="M76.7,104.1V35.9"/>
	<path class="st1" d="M77.1,104.1V35.9"/>
	<path class="st1" d="M77.4,104.1V35.9"/>
	<path class="st1" d="M77.7,104.1V35.9"/>
	<path class="st1" d="M78.1,104.1V35.9"/>
	<path class="st1" d="M78.4,104.1V35.9"/>
	<path class="st1" d="M78.7,104.1V35.9"/>
	<path class="st1" d="M79.1,104.1V35.9"/>
	<path class="st1" d="M79.4,104.1V35.9"/>
	<path class="st1" d="M79.7,104.1V35.9"/>
	<path class="st1" d="M80.1,104.1V35.9"/>
	<path class="st1" d="M80.4,104.1V35.9"/>
	<path class="st1" d="M80.8,104.1V35.9"/>
	<path class="st1" d="M81.1,104.1V35.9"/>
	<path class="st1" d="M81.4,104.1V35.9"/>
	<path class="st1" d="M81.8,104.1V35.9"/>
	<path class="st1" d="M82.1,104.1V35.9"/>
	<path class="st1" d="M82.4,104.1V35.9"/>
	<path class="st1" d="M82.8,104.1V35.9"/>
	<path class="st1" d="M83.1,104.1V35.9"/>
	<path class="st1" d="M83.4,104.1V35.9"/>
	<path class="st1" d="M83.8,104.1V35.9"/>
	<path class="st1" d="M84.1,104.1V35.9"/>
	<path class="st1" d="M84.4,104.1V35.9"/>
	<path class="st1" d="M84.8,104.1V35.9"/>
	<path class="st1" d="M85.1,104.1V35.9"/>
	<path class="st1" d="M85.4,104.1V35.9"/>
	<path class="st1" d="M85.8,104.1V35.9"/>
	<path class="st2" d="M86.1,104.1V35.9"/>
	<path class="st1" d="M86.4,104.1V35.9"/>
	<path class="st1" d="M86.8,104.1V35.9"/>
	<path class="st1" d="M87.1,104.1V35.9"/>
	<path class="st1" d="M87.4,104.1V35.9"/>
	<path class="st2" d="M87.8,104.1V35.9"/>
	<path class="st1" d="M88.1,104.1V35.9"/>
	<path class="st1" d="M88.5,104.1V35.9"/>
	<path class="st1" d="M88.8,104.1V35.9"/>
	<path class="st1" d="M89.1,104.1V35.9"/>
	<path class="st1" d="M89.5,104.1V35.9"/>
	<path class="st1" d="M89.8,104.1V35.9"/>
	<path class="st1" d="M90.1,104.1V35.9"/>
	<path class="st1" d="M90.5,104.1V35.9"/>
	<path class="st1" d="M90.8,104.1V35.9"/>
	<path class="st1" d="M91.1,104.1V35.9"/>
	<path class="st1" d="M91.5,104.1V35.9"/>
	<path class="st1" d="M91.8,104.1V35.9"/>
	<path class="st1" d="M92.1,104.1V35.9"/>
	<path class="st1" d="M92.5,104.1V35.9"/>
	<path class="st1" d="M92.8,104.1V35.9"/>
	<path class="st1" d="M93.1,104.1V35.9"/>
	<path class="st1" d="M93.5,104.1V35.9"/>
	<path class="st1" d="M93.8,104.1V35.9"/>
	<path class="st1" d="M94.1,104.1V35.9"/>
	<path class="st1" d="M94.5,104.1V35.9"/>
	<path class="st1" d="M94.8,104.1V35.9"/>
	<path class="st1" d="M95.2,104.1V35.9"/>
	<path class="st1" d="M95.5,104.1V35.9"/>
	<path class="st1" d="M95.8,104.1V35.9"/>
	<path class="st1" d="M96.2,104.1V35.9"/>
	<path class="st1" d="M96.5,104.1V35.9"/>
	<path class="st1" d="M96.8,104.1V35.9"/>
	<path class="st2" d="M97.2,104.1V35.9"/>
	<path class="st1" d="M97.5,104.1V35.9"/>
	<path class="st1" d="M97.8,104.1V35.9"/>
	<path class="st1" d="M98.2,104.1V35.9"/>
	<path class="st1" d="M98.5,104.1V35.9"/>
	<path class="st1" d="M98.8,104.1V35.9"/>
	<path class="st1" d="M99.2,104.1V35.9"/>
	<path class="st1" d="M99.5,104.1V35.9"/>
	<path class="st1" d="M99.8,104.1V35.9"/>
	<path class="st1" d="M100.2,104.1V35.9"/>
	<path class="st1" d="M100.5,104.1V35.9"/>
	<path class="st1" d="M100.8,104.1V35.9"/>
	<path class="st1" d="M101.2,104.1V35.9"/>
	<path class="st1" d="M101.5,104.1V35.9"/>
	<path class="st1" d="M101.9,104.1V35.9"/>
	<path class="st1" d="M102.2,104.1V35.9"/>
	<path class="st1" d="M102.5,104.1V35.9"/>
	<path class="st1" d="M102.9,104.1V35.9"/>
	<path class="st1" d="M103.2,104.1V35.9"/>
	<path class="st1" d="M103.5,104.1V35.9"/>
	<path class="st1" d="M103.9,104.1V35.9"/>
	<path class="st1" d="M104.2,104.1V35.9"/>
	<path class="st1" d="M104.5,104.1V35.9"/>
	<path class="st1" d="M104.9,104.1V35.9"/>
	<path class="st1" d="M105.2,104.1V35.9"/>
	<path class="st2" d="M105.5,104.1V35.9"/>
	<path class="st1" d="M105.9,104.1V35.9"/>
	<path class="st1" d="M106.2,104.1V35.9"/>
	<path class="st1" d="M106.5,104.1V35.9"/>
	<path class="st1" d="M106.9,104.1V35.9"/>
	<path class="st1" d="M107.2,104.1V35.9"/>
	<path class="st1" d="M107.5,104.1V35.9"/>
	<path class="st1" d="M107.9,104.1V35.9"/>
	<path class="st1" d="M108.2,104.1V35.9"/>
	<path class="st1" d="M108.6,104.1V35.9"/>
	<path class="st1" d="M108.9,104.1V35.9"/>
	<path class="st1" d="M109.2,104.1V35.9"/>
	<path class="st1" d="M109.6,104.1V35.9"/>
	<path class="st1" d="M109.9,104.1V35.9"/>
	<path class="st1" d="M110.2,104.1V35.9"/>
	<path class="st1" d="M110.6,104.1V35.9"/>
	<path class="st1" d="M110.9,104.1V35.9"/>
	<path class="st1" d="M111.2,104.1V35.9"/>
	<path class="st1" d="M111.6,104.1V35.9"/>
	<path class="st1" d="M111.9,104.1V35.9"/>
	<path class="st1" d="M112.2,104.1V35.9"/>
	<path class="st1" d="M112.6,104.1V35.9"/>
	<path class="st1" d="M112.9,104.1V35.9"/>
	<path class="st1" d="M113.2,104.1V35.9"/>
	<path class="st1" d="M113.6,104.1V35.9"/>
	<path class="st1" d="M113.9,104.1V35.9"/>
	<path class="st1" d="M114.2,104.1V35.9"/>
	<path class="st1" d="M114.6,104.1V35.9"/>
	<path class="st1" d="M114.9,104.1V35.9"/>
	<path class="st1" d="M115.2,104.1V35.9"/>
	<path class="st1" d="M115.6,104.1V35.9"/>
	<path class="st1" d="M115.9,104.1V35.9"/>
	<path class="st1" d="M116.3,104.1V35.9"/>
	<path class="st1" d="M116.6,104.1V35.9"/>
	<path class="st1" d="M116.9,104.1V35.9"/>
	<path class="st1" d="M117.3,104.1V35.9"/>
	<path class="st1" d="M117.6,104.1V35.9"/>
	<path class="st1" d="M117.9,104.1V35.9"/>
	<path class="st1" d="M118.3,104.1V35.9"/>
	<path class="st1" d="M118.6,104.1V35.9"/>
	<path class="st1" d="M118.9,104.1V35.9"/>
	<path class="st1" d="M119.3,104.1V35.9"/>
	<path class="st1" d="M119.6,104.1V35.9"/>
	<path class="st1" d="M119.9,104.1V35.9"/>
	<path class="st1" d="M120.3,104.1V35.9"/>
	<path class="st1" d="M120.6,104.1V35.9"/>
	<path class="st1" d="M120.9,104.1V35.9"/>
	<path class="st1" d="M121.3,104.1V35.9"/>
	<path class="st1" d="M121.6,104.1V35.9"/>
	<path class="st1" d="M121.9,104.1V35.9"/>
	<path class="st1" d="M122.3,104.1V35.9"/>
	<path class="st1" d="M122.6,104.1V35.9"/>
	<path class="st1" d="M123,104.1V35.9"/>
	<path class="st1" d="M123.3,104.1V35.9"/>
	<path class="st1" d="M123.6,104.1V35.9"/>
	<path class="st1" d="M124,104.1V35.9"/>
	<path class="st1" d="M124.3,104.1V35.9"/>
	<path class="st1" d="M124.6,104.1V35.9"/>
	<path class="st1" d="M125,104.1V35.9"/>
	<path class="st1" d="M125.3,104.1V35.9"/>
	<path class="st1" d="M125.6,104.1V35.9"/>
	<path class="st1" d="M126,104.1V35.9"/>
	<path class="st1" d="M126.3,104.1V35.9"/>
	<path class="st1" d="M126.6,104.1V35.9"/>
	<path class="st1" d="M127,104.1V35.9"/>
	<path class="st1" d="M127.3,104.1V35.9"/>
	<path class="st1" d="M127.6,104.1V35.9"/>
	<path class="st1" d="M128,104.1V35.9"/>
	<path class="st1" d="M128.3,104.1V35.9"/>
	<path class="st1" d="M128.6,104.1V35.9"/>
	<path class="st1" d="M129,104.1V35.9"/>
	<path class="st1" d="M129.3,104.1V35.9"/>
	<path class="st1" d="M129.7,104.1V35.9"/>
	<path class="st1" d="M130,104.1V35.9"/>
	<path class="st1" d="M130.3,104.1V35.9"/>
	<path class="st1" d="M130.7,104.1V35.9"/>
	<path class="st1" d="M131,104.1V35.9"/>
	<path class="st1" d="M131.3,104.1V35.9"/>
	<path class="st1" d="M131.7,104.1V35.9"/>
	<path class="st1" d="M132,104.1V35.9"/>
	<path class="st1" d="M132.3,104.1V35.9"/>
	<path class="st1" d="M132.7,104.1V35.9"/>
	<path class="st1" d="M133,104.1V35.9"/>
	<path class="st1" d="M133.3,104.1V35.9"/>
	<path class="st1" d="M133.7,104.1V35.9"/>
	<path class="st1" d="M134,104.1V35.9"/>
	<path class="st1" d="M134.3,104.1V35.9"/>
	<path class="st1" d="M134.7,104.1V35.9"/>
	<path class="st1" d="M135,104.1V35.9"/>
	<path class="st1" d="M135.3,104.1V35.9"/>
	<path class="st1" d="M135.7,104.1V35.9"/>
	<path class="st1" d="M136,104.1V35.9"/>
	<path class="st1" d="M136.3,104.1V35.9"/>
	<path class="st1" d="M136.7,104.1V35.9"/>
	<path class="st1" d="M137,104.1V35.9"/>
	<path class="st1" d="M137.4,104.1V35.9"/>
	<path class="st1" d="M137.7,104.1V35.9"/>
	<path class="st1" d="M138,104.1V35.9"/>
	<path class="st1" d="M138.4,104.1V35.9"/>
	<path class="st1" d="M138.7,104.1V35.9"/>
	<path class="st1" d="M139,104.1V35.9"/>
	<path class="st1" d="M139.4,104.1V35.9"/>
	<path class="st1" d="M139.7,104.1V35.9"/>
	<path class="st1" d="M140,104.1V35.9"/>
	<path class="st1" d="M140.4,104.1V35.9"/>
	<path class="st1" d="M140.7,104.1V35.9"/>
	<path class="st1" d="M141,104.1V35.9"/>
	<path class="st1" d="M141.4,104.1V35.9"/>
	<path class="st1" d="M141.7,104.1V35.9"/>
	<path class="st1" d="M142,104.1V35.9"/>
	<path class="st1" d="M142.4,104.1V35.9"/>
	<path class="st1" d="M142.7,104.1V35.9"/>
	<path class="st1" d="M143,104.1V35.9"/>
	<path class="st1" d="M143.4,104.1V35.9"/>
	<path class="st1" d="M143.7,104.1V35.9"/>
	<path class="st1" d="M144.1,104.1V35.9"/>
	<path class="st1" d="M144.4,104.1V35.9"/>
	<path class="st1" d="M144.7,104.1V35.9"/>
	<path class="st1" d="M145.1,104.1V35.9"/>
	<path class="st1" d="M145.4,104.1V35.9"/>
	<path class="st1" d="M145.7,104.1V35.9"/>
	<path class="st1" d="M146.1,104.1V35.9"/>
	<path class="st1" d="M146.4,104.1V35.9"/>
	<path class="st1" d="M146.7,104.1V35.9"/>
	<path class="st1" d="M147.1,104.1V35.9"/>
	<path class="st1" d="M147.4,104.1V35.9"/>
	<path class="st1" d="M147.7,104.1V35.9"/>
	<path class="st1" d="M148.1,104.1V35.9"/>
	<path class="st1" d="M148.4,104.1V35.9"/>
	<path class="st1" d="M148.7,104.1V35.9"/>
	<path class="st1" d="M149.1,104.1V35.9"/>
	<path class="st1" d="M149.4,104.1V35.9"/>
	<path class="st1" d="M149.7,104.1V35.9"/>
	<path class="st1" d="M150.1,104.1V35.9"/>
	<path class="st1" d="M150.4,104.1V35.9"/>
	<path class="st1" d="M150.8,104.1V35.9"/>
	<path class="st1" d="M151.1,104.1V35.9"/>
	<path class="st1" d="M151.4,104.1V35.9"/>
	<path class="st1" d="M151.8,104.1V35.9"/>
	<path class="st1" d="M152.1,104.1V35.9"/>
	<path class="st1" d="M152.4,104.1V35.9"/>
	<path class="st1" d="M152.8,104.1V35.9"/>
	<path class="st1" d="M153.1,104.1V35.9"/>
	<path class="st1" d="M153.4,104.1V35.9"/>
	<path class="st1" d="M153.8,104.1V35.9"/>
	<path class="st1" d="M154.1,104.1V35.9"/>
	<path class="st1" d="M154.4,104.1V35.9"/>
	<path class="st1" d="M154.8,104.1V35.9"/>
	<path class="st1" d="M155.1,104.1V35.9"/>
	<path class="st1" d="M155.4,104.1V35.9"/>
	<path class="st1" d="M155.8,104.1V35.9"/>
	<path class="st1" d="M156.1,104.1V35.9"/>
	<path class="st1" d="M156.4,104.1V35.9"/>
	<path class="st1" d="M156.8,104.1V35.9"/>
	<path class="st1" d="M157.1,104.1V35.9"/>
	<path class="st2" d="M157.4,104.1V35.9"/>
	<path class="st2" d="M157.8,104.1V35.9"/>
	<path class="st2" d="M158.1,104.1V35.9"/>
	<path class="st1" d="M158.5,104.1V35.9"/>
	<path class="st1" d="M158.8,104.1V35.9"/>
	<path class="st1" d="M159.1,104.1V35.9"/>
	<path class="st1" d="M159.5,104.1V35.9"/>
	<path class="st1" d="M159.8,104.1V35.9"/>
	<path class="st1" d="M160.1,104.1V35.9"/>
	<path class="st1" d="M160.5,104.1V35.9"/>
	<path class="st1" d="M160.8,104.1V35.9"/>
	<path class="st1" d="M161.1,104.1V35.9"/>
	<path class="st1" d="M161.5,104.1V35.9"/>
	<path class="st1" d="M161.8,104.1V35.9"/>
	<path class="st1" d="M162.1,104.1V35.9"/>
	<path class="st1" d="M162.5,104.1V35.9"/>
	<path class="st1" d="M162.8,104.1V35.9"/>
	<path class="st1" d="M163.1,104.1V35.9"/>
	<path class="st1" d="M163.5,104.1V35.9"/>
	<path class="st1" d="M163.8,104.1V35.9"/>
	<path class="st1" d="M164.1,104.1V35.9"/>
	<path class="st1" d="M164.5,104.1V35.9"/>
	<path class="st1" d="M164.8,104.1V35.9"/>
	<path class="st1" d="M165.2,104.1V35.9"/>
	<path class="st1" d="M165.5,104.1V35.9"/>
	<path class="st1" d="M165.8,104.1V35.9"/>
	<path class="st1" d="M166.2,104.1V35.9"/>
	<path class="st1" d="M166.5,104.1V35.9"/>
	<path class="st1" d="M166.8,104.1V35.9"/>
	<path class="st1" d="M167.2,104.1V35.9"/>
	<path class="st1" d="M167.5,104.1V35.9"/>
	<path class="st1" d="M167.8,104.1V35.9"/>
	<path class="st1" d="M168.2,104.1V35.9"/>
	<path class="st1" d="M168.5,104.1V35.9"/>
	<path class="st1" d="M168.8,104.1V35.9"/>
	<path class="st1" d="M169.2,104.1V35.9"/>
	<path class="st1" d="M169.5,104.1V35.9"/>
	<path class="st1" d="M169.8,104.1V35.9"/>
	<path class="st1" d="M170.2,104.1V35.9"/>
	<path class="st1" d="M170.5,104.1V35.9"/>
	<path class="st1" d="M170.8,104.1V35.9"/>
	<path class="st1" d="M171.2,104.1V35.9"/>
	<path class="st1" d="M171.5,104.1V35.9"/>
	<path class="st1" d="M171.9,104.1V35.9"/>
	<path class="st1" d="M172.2,104.1V35.9"/>
	<path class="st1" d="M172.5,104.1V35.9"/>
	<path class="st1" d="M172.9,104.1V35.9"/>
	<path class="st1" d="M173.2,104.1V35.9"/>
	<path class="st1" d="M173.5,104.1V35.9"/>
	<path class="st1" d="M173.9,104.1V35.9"/>
	<path class="st1" d="M174.2,104.1V35.9"/>
	<path class="st1" d="M174.5,104.1V35.9"/>
	<path class="st1" d="M174.9,104.1V35.9"/>
	<path class="st1" d="M175.2,104.1V35.9"/>
	<path class="st1" d="M175.5,104.1V35.9"/>
	<path class="st1" d="M175.9,104.1V35.9"/>
	<path class="st1" d="M176.2,104.1V35.9"/>
	<path class="st1" d="M176.5,104.1V35.9"/>
	<path class="st1" d="M176.9,104.1V35.9"/>
	<path class="st1" d="M177.2,104.1V35.9"/>
	<path class="st1" d="M177.5,104.1V35.9"/>
	<path class="st1" d="M177.9,104.1V35.9"/>
	<path class="st1" d="M178.2,104.1V35.9"/>
	<path class="st1" d="M178.6,104.1V35.9"/>
	<path class="st1" d="M178.9,104.1V35.9"/>
	<path class="st1" d="M179.2,104.1V35.9"/>
	<path class="st1" d="M179.6,104.1V35.9"/>
	<path class="st1" d="M179.9,104.1V35.9"/>
	<path class="st1" d="M180.2,104.1V35.9"/>
	<path class="st1" d="M180.6,104.1V35.9"/>
	<path class="st1" d="M180.9,104.1V35.9"/>
	<path class="st1" d="M181.2,104.1V35.9"/>
	<path class="st1" d="M181.6,104.1V35.9"/>
	<path class="st2" d="M181.9,104.1V35.9"/>
	<path class="st1" d="M182.2,104.1V35.9"/>
	<path class="st1" d="M182.6,104.1V35.9"/>
	<path class="st1" d="M182.9,104.1V35.9"/>
	<path class="st1" d="M183.2,104.1V35.9"/>
	<path class="st1" d="M183.6,104.1V35.9"/>
	<path class="st1" d="M183.9,104.1V35.9"/>
	<path class="st1" d="M184.2,104.1V35.9"/>
	<path class="st2" d="M184.6,104.1V35.9"/>
	<path class="st1" d="M184.9,104.1V35.9"/>
	<path class="st1" d="M185.2,104.1V35.9"/>
	<path class="st1" d="M185.6,104.1V35.9"/>
	<path class="st1" d="M185.9,104.1V35.9"/>
	<path class="st1" d="M186.3,104.1V35.9"/>
	<path class="st1" d="M186.6,104.1V35.9"/>
	<path class="st1" d="M186.9,104.1V35.9"/>
	<path class="st1" d="M187.3,104.1V35.9"/>
	<path class="st1" d="M187.6,104.1V35.9"/>
	<path class="st1" d="M187.9,104.1V35.9"/>
	<path class="st1" d="M188.3,104.1V35.9"/>
	<path class="st1" d="M188.6,104.1V35.9"/>
	<path class="st1" d="M188.9,104.1V35.9"/>
	<path class="st1" d="M189.3,104.1V35.9"/>
	<path class="st1" d="M189.6,104.1V35.9"/>
	<path class="st1" d="M189.9,104.1V35.9"/>
	<path class="st1" d="M190.3,104.1V35.9"/>
	<path class="st1" d="M190.6,104.1V35.9"/>
	<path class="st1" d="M190.9,104.1V35.9"/>
	<path class="st1" d="M191.3,104.1V35.9"/>
	<path class="st1" d="M191.6,104.1V35.9"/>
	<path class="st1" d="M191.9,104.1V35.9"/>
	<path class="st1" d="M192.3,104.1V35.9"/>
	<path class="st1" d="M192.6,104.1V35.9"/>
	<path class="st1" d="M193,104.1V35.9"/>
	<path class="st1" d="M193.3,104.1V35.9"/>
	<path class="st1" d="M193.6,104.1V35.9"/>
	<path class="st1" d="M194,104.1V35.9"/>
	<path class="st1" d="M194.3,104.1V35.9"/>
	<path class="st1" d="M194.6,104.1V35.9"/>
	<path class="st1" d="M195,104.1V35.9"/>
	<path class="st1" d="M195.3,104.1V35.9"/>
	<path class="st1" d="M195.6,104.1V35.9"/>
	<path class="st1" d="M196,104.1V35.9"/>
	<path class="st1" d="M196.3,104.1V35.9"/>
	<path class="st1" d="M196.6,104.1V35.9"/>
	<path class="st1" d="M197,104.1V35.9"/>
	<path class="st1" d="M197.3,104.1V35.9"/>
	<path class="st1" d="M197.6,104.1V35.9"/>
	<path class="st1" d="M198,104.1V35.9"/>
	<path class="st1" d="M198.3,104.1V35.9"/>
	<path class="st1" d="M198.6,104.1V35.9"/>
	<path class="st1" d="M199,104.1V35.9"/>
	<path class="st1" d="M199.3,104.1V35.9"/>
	<path class="st1" d="M199.7,104.1V35.9"/>
	<path class="st1" d="M200,104.1V35.9"/>
	<path class="st1" d="M200.3,104.1V35.9"/>
	<path class="st1" d="M200.7,104.1V35.9"/>
	<path class="st1" d="M201,104.1V35.9"/>
	<path class="st1" d="M201.3,104.1V35.9"/>
	<path class="st1" d="M201.7,104.1V35.9"/>
	<path class="st1" d="M202,104.1V35.9"/>
	<path class="st1" d="M202.3,104.1V35.9"/>
	<path class="st1" d="M202.7,104.1V35.9"/>
	<path class="st1" d="M203,104.1V35.9"/>
	<path class="st1" d="M203.3,104.1V35.9"/>
	<path class="st1" d="M203.7,104.1V35.9"/>
	<path class="st1" d="M204,104.1V35.9"/>
	<path class="st1" d="M204.3,104.1V35.9"/>
	<path class="st1" d="M204.7,104.1V35.9"/>
	<path class="st1" d="M205,104.1V35.9"/>
	<path class="st1" d="M205.3,104.1V35.9"/>
	<path class="st1" d="M205.7,104.1V35.9"/>
	<path class="st1" d="M206,104.1V35.9"/>
	<path class="st1" d="M206.3,104.1V35.9"/>
	<path class="st1" d="M206.7,104.1V35.9"/>
	<path class="st1" d="M207,104.1V35.9"/>
	<path class="st1" d="M207.4,104.1V35.9"/>
	<path class="st1" d="M207.7,104.1V35.9"/>
	<path class="st1" d="M208,104.1V35.9"/>
	<path class="st1" d="M208.4,104.1V35.9"/>
	<path class="st1" d="M208.7,104.1V35.9"/>
	<path class="st1" d="M209,104.1V35.9"/>
	<path class="st1" d="M209.4,104.1V35.9"/>
	<path class="st1" d="M209.7,104.1V35.9"/>
	<path class="st1" d="M210,104.1V35.9"/>
	<path class="st1" d="M210.4,104.1V35.9"/>
	<path class="st1" d="M210.7,104.1V35.9"/>
	<path class="st1" d="M211,104.1V35.9"/>
	<path class="st1" d="M211.4,104.1V35.9"/>
	<path class="st2" d="M211.7,104.1V35.9"/>
	<path class="st1" d="M212,104.1V35.9"/>
	<path class="st1" d="M212.4,104.1V35.9"/>
	<path class="st1" d="M212.7,104.1V35.9"/>
	<path class="st1" d="M213,104.1V35.9"/>
	<path class="st1" d="M213.4,104.1V35.9"/>
	<path class="st1" d="M213.7,104.1V35.9"/>
	<path class="st1" d="M214.1,104.1V35.9"/>
	<path class="st1" d="M214.4,104.1V35.9"/>
	<path class="st1" d="M214.7,104.1V35.9"/>
	<path class="st1" d="M215.1,104.1V35.9"/>
	<path class="st1" d="M215.4,104.1V35.9"/>
	<path class="st1" d="M215.7,104.1V35.9"/>
	<path class="st1" d="M216.1,104.1V35.9"/>
	<path class="st1" d="M216.4,104.1V35.9"/>
	<path class="st1" d="M216.7,104.1V35.9"/>
	<path class="st1" d="M217.1,104.1V35.9"/>
	<path class="st1" d="M217.4,104.1V35.9"/>
	<path class="st1" d="M217.7,104.1V35.9"/>
	<path class="st1" d="M218.1,104.1V35.9"/>
	<path class="st1" d="M218.4,104.1V35.9"/>
	<path class="st1" d="M218.7,104.1V35.9"/>
	<path class="st1" d="M219.1,104.1V35.9"/>
	<path class="st1" d="M219.4,104.1V35.9"/>
	<path class="st1" d="M219.7,104.1V35.9"/>
	<path class="st1" d="M220.1,104.1V35.9"/>
	<path class="st1" d="M220.4,104.1V35.9"/>
	<path class="st1" d="M220.8,104.1V35.9"/>
	<path class="st1" d="M221.1,104.1V35.9"/>
	<path class="st1" d="M221.4,104.1V35.9"/>
	<path class="st1" d="M221.8,104.1V35.9"/>
	<path class="st1" d="M222.1,104.1V35.9"/>
	<path class="st1" d="M222.4,104.1V35.9"/>
	<path class="st1" d="M222.8,104.1V35.9"/>
	<path class="st1" d="M223.1,104.1V35.9"/>
	<path class="st1" d="M223.4,104.1V35.9"/>
	<path class="st1" d="M223.8,104.1V35.9"/>
	<path class="st1" d="M224.1,104.1V35.9"/>
	<path class="st1" d="M224.4,104.1V35.9"/>
	<path class="st1" d="M224.8,104.1V35.9"/>
	<path class="st1" d="M225.1,104.1V35.9"/>
	<path class="st1" d="M225.4,104.1V35.9"/>
	<path class="st1" d="M225.8,104.1V35.9"/>
	<path class="st1" d="M226.1,104.1V35.9"/>
	<path class="st1" d="M226.4,104.1V35.9"/>
	<path class="st1" d="M226.8,104.1V35.9"/>
	<path class="st1" d="M227.1,104.1V35.9"/>
	<path class="st1" d="M227.4,104.1V35.9"/>
	<path class="st1" d="M227.8,104.1V35.9"/>
	<path class="st1" d="M228.1,104.1V35.9"/>
	<path class="st1" d="M228.5,104.1V35.9"/>
	<path class="st1" d="M228.8,104.1V35.9"/>
	<path class="st1" d="M229.1,104.1V35.9"/>
	<path class="st1" d="M229.5,104.1V35.9"/>
	<path class="st1" d="M229.8,104.1V35.9"/>
	<path class="st1" d="M230.1,104.1V35.9"/>
	<path class="st1" d="M230.5,104.1V35.9"/>
	<path class="st1" d="M230.8,104.1V35.9"/>
	<path class="st1" d="M231.1,104.1V35.9"/>
	<path class="st1" d="M231.5,104.1V35.9"/>
	<path class="st1" d="M231.8,104.1V35.9"/>
	<path class="st1" d="M232.1,104.1V35.9"/>
	<path class="st1" d="M232.5,104.1V35.9"/>
	<path class="st1" d="M232.8,104.1V35.9"/>
	<path class="st1" d="M233.1,104.1V35.9"/>
	<path class="st1" d="M233.5,104.1V35.9"/>
	<path class="st1" d="M233.8,104.1V35.9"/>
	<path class="st1" d="M234.1,104.1V35.9"/>
	<path class="st1" d="M234.5,104.1V35.9"/>
	<path class="st1" d="M234.8,104.1V35.9"/>
	<path class="st1" d="M235.2,104.1V35.9"/>
	<path class="st1" d="M235.5,104.1V35.9"/>
	<path class="st1" d="M235.8,104.1V35.9"/>
	<path class="st1" d="M236.2,104.1V35.9"/>
	<path class="st1" d="M236.5,104.1V35.9"/>
	<path class="st1" d="M236.8,104.1V35.9"/>
	<path class="st1" d="M237.2,104.1V35.9"/>
	<path class="st1" d="M237.5,104.1V35.9"/>
	<path class="st1" d="M237.8,104.1V35.9"/>
	<path class="st1" d="M238.2,104.1V35.9"/>
	<path class="st1" d="M238.5,104.1V35.9"/>
	<path class="st1" d="M238.8,104.1V35.9"/>
	<path class="st1" d="M239.2,104.1V35.9"/>
	<path class="st1" d="M239.5,104.1V35.9"/>
	<path class="st1" d="M239.8,104.1V35.9"/>
	<path class="st1" d="M240.2,104.1V35.9"/>
	<path class="st1" d="M240.5,104.1V35.9"/>
	<path class="st1" d="M240.8,104.1V35.9"/>
	<path class="st1" d="M241.2,104.1V35.9"/>
	<path class="st1" d="M241.5,104.1V35.9"/>
	<path class="st1" d="M241.9,104.1V35.9"/>
	<path class="st1" d="M242.2,104.1V35.9"/>
	<path class="st1" d="M242.5,104.1V35.9"/>
	<path class="st1" d="M242.9,104.1V35.9"/>
	<path class="st1" d="M243.2,104.1V35.9"/>
	<path class="st1" d="M243.5,104.1V35.9"/>
	<path class="st1" d="M243.9,104.1V35.9"/>
	<path class="st1" d="M244.2,104.1V35.9"/>
	<path class="st1" d="M244.5,104.1V35.9"/>
	<path class="st1" d="M244.9,104.1V35.9"/>
	<path class="st1" d="M245.2,104.1V35.9"/>
	<path class="st1" d="M245.5,104.1V35.9"/>
	<path class="st1" d="M245.9,104.1V35.9"/>
	<path class="st1" d="M246.2,104.1V35.9"/>
	<path class="st1" d="M246.5,104.1V35.9"/>
	<path class="st1" d="M246.9,104.1V35.9"/>
	<path class="st1" d="M247.2,104.1V35.9"/>
	<path class="st1" d="M247.5,104.1V35.9"/>
	<path class="st1" d="M247.9,104.1V35.9"/>
	<path class="st1" d="M248.2,104.1V35.9"/>
	<path class="st2" d="M248.6,104.1V35.9"/>
	<path class="st1" d="M248.9,104.1V35.9"/>
	<path class="st1" d="M249.2,104.1V35.9"/>
	<path class="st2" d="M249.6,104.1V35.9"/>
	<path class="st2" d="M249.9,104.1V35.9"/>
	<path class="st1" d="M250.2,104.1V35.9"/>
	<path class="st1" d="M250.6,104.1V35.9"/>
	<path class="st1" d="M250.9,104.1V35.9"/>
	<path class="st1" d="M251.2,104.1V35.9"/>
	<path class="st1" d="M251.6,104.1V35.9"/>
	<path class="st1" d="M251.9,104.1V35.9"/>
	<path class="st1" d="M252.2,104.1V35.9"/>
	<path class="st1" d="M252.6,104.1V35.9"/>
	<path class="st1" d="M252.9,104.1V35.9"/>
	<path class="st1" d="M253.2,104.1V35.9"/>
	<path class="st1" d="M253.6,104.1V35.9"/>
	<path class="st2" d="M253.9,104.1V35.9"/>
	<path class="st1" d="M254.2,104.1V35.9"/>
	<path class="st1" d="M254.6,104.1V35.9"/>
	<path class="st1" d="M254.9,104.1V35.9"/>
	<path class="st1" d="M255.2,104.1V35.9"/>
	<path class="st1" d="M255.6,104.1V35.9"/>
	<path class="st2" d="M255.9,104.1V35.9"/>
	<path class="st2" d="M256.3,104.1V35.9"/>
	<path class="st1" d="M256.6,104.1V35.9"/>
	<path class="st1" d="M256.9,104.1V35.9"/>
	<path class="st1" d="M257.3,104.1V35.9"/>
	<path class="st1" d="M257.6,104.1V35.9"/>
	<path class="st2" d="M257.9,104.1V35.9"/>
	<path class="st2" d="M258.3,104.1V35.9"/>
	<path class="st2" d="M258.6,104.1V35.9"/>
	<path class="st2" d="M258.9,104.1V35.9"/>
	<path class="st1" d="M259.3,104.1V35.9"/>
	<path class="st1" d="M259.6,104.1V35.9"/>
	<path class="st1" d="M259.9,104.1V35.9"/>
	<path class="st1" d="M260.3,104.1V35.9"/>
	<path class="st1" d="M260.6,104.1V35.9"/>
	<path class="st1" d="M260.9,104.1V35.9"/>
	<path class="st1" d="M261.3,104.1V35.9"/>
	<path class="st1" d="M261.6,104.1V35.9"/>
	<path class="st2" d="M261.9,104.1V35.9"/>
	<path class="st1" d="M262.3,104.1V35.9"/>
	<path class="st1" d="M262.6,104.1V35.9"/>
	<path class="st1" d="M263,104.1V35.9"/>
	<path class="st1" d="M263.3,104.1V35.9"/>
	<path class="st1" d="M263.6,104.1V35.9"/>
	<path class="st1" d="M264,104.1V35.9"/>
	<path class="st1" d="M264.3,104.1V35.9"/>
	<path class="st2" d="M264.6,104.1V35.9"/>
	<path class="st2" d="M265,104.1V35.9"/>
	<path class="st1" d="M265.3,104.1V35.9"/>
	<path class="st1" d="M265.6,104.1V35.9"/>
	<path class="st1" d="M266,104.1V35.9"/>
	<path class="st1" d="M266.3,104.1V35.9"/>
	<path class="st1" d="M266.6,104.1V35.9"/>
	<path class="st1" d="M267,104.1V35.9"/>
	<path class="st1" d="M267.3,104.1V35.9"/>
	<path class="st1" d="M267.6,104.1V35.9"/>
	<path class="st1" d="M268,104.1V35.9"/>
	<path class="st1" d="M268.3,104.1V35.9"/>
	<path class="st1" d="M268.6,104.1V35.9"/>
	<path class="st1" d="M269,104.1V35.9"/>
	<path class="st2" d="M269.3,104.1V35.9"/>
	<path class="st1" d="M269.7,104.1V35.9"/>
	<path class="st1" d="M270,104.1V35.9"/>
	<path class="st1" d="M270.3,104.1V35.9"/>
	<path class="st1" d="M270.7,104.1V35.9"/>
	<path class="st1" d="M271,104.1V35.9"/>
	<path class="st1" d="M271.3,104.1V35.9"/>
	<path class="st1" d="M271.7,104.1V35.9"/>
	<path class="st1" d="M272,104.1V35.9"/>
	<path class="st1" d="M272.3,104.1V35.9"/>
	<path class="st1" d="M272.7,104.1V35.9"/>
	<path class="st1" d="M273,104.1V35.9"/>
	<path class="st2" d="M273.3,104.1V35.9"/>
	<path class="st1" d="M273.7,104.1V35.9"/>
	<path class="st2" d="M274,104.1V35.9"/>
	<path class="st2" d="M274.3,104.1V35.9"/>
	<path class="st1" d="M274.7,104.1V35.9"/>
	<path class="st1" d="M275,104.1V35.9"/>
	<path class="st2" d="M275.3,104.1V35.9"/>
	<path class="st2" d="M275.7,104.1V35.9"/>
	<path class="st1" d="M276,104.1V35.9"/>
	<path class="st1" d="M276.3,104.1V35.9"/>
	<path class="st1" d="M276.7,104.1V35.9"/>
	<path class="st1" d="M277,104.1V35.9"/>
	<path class="st1" d="M277.4,104.1V35.9"/>
	<path class="st1" d="M277.7,104.1V35.9"/>
	<path class="st2" d="M278,104.1V35.9"/>
	<path class="st1" d="M278.4,104.1V35.9"/>
	<path class="st1" d="M278.7,104.1V35.9"/>
	<path class="st2" d="M279,104.1V35.9"/>
	<path class="st1" d="M279.4,104.1V35.9"/>
	<path class="st1" d="M279.7,104.1V35.9"/>
	<path class="st1" d="M280,104.1V35.9"/>
	<path class="st2" d="M280.4,104.1V35.9"/>
	<path class="st1" d="M280.7,104.1V35.9"/>
	<path class="st1" d="M281,104.1V35.9"/>
	<path class="st2" d="M281.4,104.1V35.9"/>
	<path class="st1" d="M281.7,104.1V35.9"/>
	<path class="st1" d="M282,104.1V35.9"/>
	<path class="st1" d="M282.4,104.1V35.9"/>
	<path class="st1" d="M282.7,104.1V35.9"/>
	<path class="st1" d="M283,104.1V35.9"/>
	<path class="st1" d="M283.4,104.1V35.9"/>
	<path class="st1" d="M283.7,104.1V35.9"/>
	<path class="st1" d="M284.1,104.1V35.9"/>
	<path class="st1" d="M284.4,104.1V35.9"/>
	<path class="st1" d="M284.7,104.1V35.9"/>
	<path class="st1" d="M285.1,104.1V35.9"/>
	<path class="st1" d="M285.4,104.1V35.9"/>
	<path class="st1" d="M285.7,104.1V35.9"/>
	<path class="st1" d="M286.1,104.1V35.9"/>
	<path class="st1" d="M286.4,104.1V35.9"/>
	<path class="st1" d="M286.7,104.1V35.9"/>
	<path class="st1" d="M287.1,104.1V35.9"/>
	<path class="st1" d="M287.4,104.1V35.9"/>
	<path class="st1" d="M287.7,104.1V35.9"/>
	<path class="st1" d="M288.1,104.1V35.9"/>
	<path class="st1" d="M288.4,104.1V35.9"/>
	<path class="st1" d="M288.7,104.1V35.9"/>
	<path class="st1" d="M289.1,104.1V35.9"/>
	<path class="st1" d="M289.4,104.1V35.9"/>
	<path class="st1" d="M289.7,104.1V35.9"/>
	<path class="st1" d="M290.1,104.1V35.9"/>
	<path class="st1" d="M290.4,104.1V35.9"/>
	<path class="st1" d="M290.8,104.1V35.9"/>
	<path class="st1" d="M291.1,104.1V35.9"/>
	<path class="st1" d="M291.4,104.1V35.9"/>
	<path class="st1" d="M291.8,104.1V35.9"/>
	<path class="st1" d="M292.1,104.1V35.9"/>
	<path class="st1" d="M292.4,104.1V35.9"/>
	<path class="st1" d="M292.8,104.1V35.9"/>
	<path class="st1" d="M293.1,104.1V35.9"/>
	<path class="st1" d="M293.4,104.1V35.9"/>
	<path class="st1" d="M293.8,104.1V35.9"/>
	<path class="st1" d="M294.1,104.1V35.9"/>
	<path class="st1" d="M294.4,104.1V35.9"/>
	<path class="st1" d="M294.8,104.1V35.9"/>
	<path class="st1" d="M295.1,104.1V35.9"/>
	<path class="st1" d="M295.4,104.1V35.9"/>
	<path class="st1" d="M295.8,104.1V35.9"/>
	<path class="st1" d="M296.1,104.1V35.9"/>
	<path class="st1" d="M296.4,104.1V35.9"/>
	<path class="st1" d="M296.8,104.1V35.9"/>
	<path class="st1" d="M297.1,104.1V35.9"/>
	<path class="st1" d="M297.4,104.1V35.9"/>
	<path class="st1" d="M297.8,104.1V35.9"/>
	<path class="st1" d="M298.1,104.1V35.9"/>
	<path class="st1" d="M298.5,104.1V35.9"/>
	<path class="st1" d="M298.8,104.1V35.9"/>
	<path class="st1" d="M299.1,104.1V35.9"/>
	<path class="st1" d="M299.5,104.1V35.9"/>
	<path class="st1" d="M299.8,104.1V35.9"/>
	<path class="st1" d="M300.1,104.1V35.9"/>
	<path class="st1" d="M300.5,104.1V35.9"/>
	<path class="st1" d="M300.8,104.1V35.9"/>
	<path class="st1" d="M301.1,104.1V35.9"/>
	<path class="st1" d="M301.5,104.1V35.9"/>
	<path class="st1" d="M301.8,104.1V35.9"/>
	<path class="st1" d="M302.1,104.1V35.9"/>
	<path class="st1" d="M302.5,104.1V35.9"/>
	<path class="st1" d="M302.8,104.1V35.9"/>
	<path class="st1" d="M303.1,104.1V35.9"/>
	<path class="st1" d="M303.5,104.1V35.9"/>
	<path class="st1" d="M303.8,104.1V35.9"/>
	<path class="st1" d="M304.1,104.1V35.9"/>
	<path class="st1" d="M304.5,104.1V35.9"/>
	<path class="st1" d="M304.8,104.1V35.9"/>
	<path class="st1" d="M305.2,104.1V35.9"/>
	<path class="st1" d="M305.5,104.1V35.9"/>
	<path class="st1" d="M305.8,104.1V35.9"/>
	<path class="st1" d="M306.2,104.1V35.9"/>
	<path class="st1" d="M306.5,104.1V35.9"/>
	<path class="st1" d="M306.8,104.1V35.9"/>
	<path class="st1" d="M307.2,104.1V35.9"/>
	<path class="st1" d="M307.5,104.1V35.9"/>
	<path class="st1" d="M307.8,104.1V35.9"/>
	<path class="st1" d="M308.2,104.1V35.9"/>
	<path class="st1" d="M308.5,104.1V35.9"/>
	<path class="st1" d="M308.8,104.1V35.9"/>
	<path class="st1" d="M309.2,104.1V35.9"/>
	<path class="st1" d="M309.5,104.1V35.9"/>
	<path class="st1" d="M309.8,104.1V35.9"/>
	<path class="st1" d="M310.2,104.1V35.9"/>
	<path class="st1" d="M310.5,104.1V35.9"/>
	<path class="st1" d="M310.8,104.1V35.9"/>
	<path class="st1" d="M311.2,104.1V35.9"/>
	<path class="st1" d="M311.5,104.1V35.9"/>
	<path class="st1" d="M311.9,104.1V35.9"/>
	<path class="st1" d="M312.2,104.1V35.9"/>
	<path class="st1" d="M312.5,104.1V35.9"/>
	<path class="st1" d="M312.9,104.1V35.9"/>
	<path class="st1" d="M313.2,104.1V35.9"/>
	<path class="st1" d="M313.5,104.1V35.9"/>
	<path class="st1" d="M313.9,104.1V35.9"/>
	<path class="st1" d="M314.2,104.1V35.9"/>
	<path class="st1" d="M314.5,104.1V35.9"/>
	<path class="st1" d="M314.9,104.1V35.9"/>
	<path class="st1" d="M315.2,104.1V35.9"/>
	<path class="st1" d="M315.5,104.1V35.9"/>
	<path class="st1" d="M315.9,104.1V35.9"/>
	<path class="st1" d="M316.2,104.1V35.9"/>
	<path class="st1" d="M316.5,104.1V35.9"/>
	<path class="st1" d="M316.9,104.1V35.9"/>
	<path class="st1" d="M317.2,104.1V35.9"/>
	<path class="st1" d="M317.5,104.1V35.9"/>
	<path class="st1" d="M317.9,104.1V35.9"/>
	<path class="st1" d="M318.2,104.1V35.9"/>
	<path class="st1" d="M318.6,104.1V35.9"/>
	<path class="st1" d="M318.9,104.1V35.9"/>
	<path class="st1" d="M319.2,104.1V35.9"/>
	<path class="st1" d="M319.6,104.1V35.9"/>
	<path class="st1" d="M319.9,104.1V35.9"/>
	<path class="st1" d="M320.2,104.1V35.9"/>
	<path class="st1" d="M320.6,104.1V35.9"/>
	<path class="st1" d="M320.9,104.1V35.9"/>
	<path class="st2" d="M321.2,104.1V35.9"/>
	<path class="st1" d="M321.6,104.1V35.9"/>
	<path class="st1" d="M321.9,104.1V35.9"/>
	<path class="st1" d="M322.2,104.1V35.9"/>
	<path class="st1" d="M322.6,104.1V35.9"/>
	<path class="st1" d="M322.9,104.1V35.9"/>
	<path class="st1" d="M323.2,104.1V35.9"/>
	<path class="st1" d="M323.6,104.1V35.9"/>
	<path class="st1" d="M323.9,104.1V35.9"/>
	<path class="st1" d="M324.2,104.1V35.9"/>
	<path class="st1" d="M324.6,104.1V35.9"/>
	<path class="st1" d="M324.9,104.1V35.9"/>
	<path class="st1" d="M325.2,104.1V35.9"/>
	<path class="st1" d="M325.6,104.1V35.9"/>
	<path class="st1" d="M325.9,104.1V35.9"/>
	<path class="st1" d="M326.3,104.1V35.9"/>
	<path class="st1" d="M326.6,104.1V35.9"/>
	<path class="st1" d="M326.9,104.1V35.9"/>
	<path class="st1" d="M327.3,104.1V35.9"/>
	<path class="st1" d="M327.6,104.1V35.9"/>
	<path class="st1" d="M327.9,104.1V35.9"/>
	<path class="st1" d="M328.3,104.1V35.9"/>
	<path class="st1" d="M328.6,104.1V35.9"/>
	<path class="st1" d="M328.9,104.1V35.9"/>
	<path class="st1" d="M329.3,104.1V35.9"/>
	<path class="st1" d="M329.6,104.1V35.9"/>
	<path class="st1" d="M329.9,104.1V35.9"/>
	<path class="st1" d="M330.3,104.1V35.9"/>
	<path class="st1" d="M330.6,104.1V35.9"/>
	<path class="st1" d="M330.9,104.1V35.9"/>
	<path class="st1" d="M331.3,104.1V35.9"/>
	<path class="st1" d="M331.6,104.1V35.9"/>
	<path class="st1" d="M331.9,104.1V35.9"/>
	<path class="st1" d="M332.3,104.1V35.9"/>
	<path class="st1" d="M332.6,104.1V35.9"/>
	<path class="st1" d="M333,104.1V35.9"/>
	<path class="st1" d="M333.3,104.1V35.9"/>
	<path class="st1" d="M333.6,104.1V35.9"/>
	<path class="st1" d="M334,104.1V35.9"/>
	<path class="st1" d="M334.3,104.1V35.9"/>
	<path class="st1" d="M334.6,104.1V35.9"/>
	<path class="st1" d="M335,104.1V35.9"/>
	<path class="st1" d="M335.3,104.1V35.9"/>
	<path class="st1" d="M335.6,104.1V35.9"/>
	<path class="st1" d="M336,104.1V35.9"/>
	<path class="st1" d="M336.3,104.1V35.9"/>
	<path class="st1" d="M336.6,104.1V35.9"/>
	<path class="st1" d="M337,104.1V35.9"/>
	<path class="st1" d="M337.3,104.1V35.9"/>
	<path class="st1" d="M337.6,104.1V35.9"/>
	<path class="st1" d="M338,104.1V35.9"/>
	<path class="st1" d="M338.3,104.1V35.9"/>
	<path class="st1" d="M338.6,104.1V35.9"/>
	<path class="st1" d="M339,104.1V35.9"/>
	<path class="st1" d="M339.3,104.1V35.9"/>
	<path class="st1" d="M339.7,104.1V35.9"/>
	<path class="st1" d="M340,104.1V35.9"/>
	<path class="st1" d="M340.3,104.1V35.9"/>
	<path class="st1" d="M340.7,104.1V35.9"/>
	<path class="st1" d="M341,104.1V35.9"/>
	<path class="st1" d="M341.3,104.1V35.9"/>
	<path class="st1" d="M341.7,104.1V35.9"/>
	<path class="st1" d="M342,104.1V35.9"/>
	<path class="st1" d="M342.3,104.1V35.9"/>
	<path class="st1" d="M342.7,104.1V35.9"/>
	<path class="st1" d="M343,104.1V35.9"/>
	<path class="st1" d="M343.3,104.1V35.9"/>
	<path class="st1" d="M343.7,104.1V35.9"/>
	<path class="st1" d="M344,104.1V35.9"/>
	<path class="st1" d="M344.3,104.1V35.9"/>
	<path class="st1" d="M344.7,104.1V35.9"/>
	<path class="st1" d="M345,104.1V35.9"/>
	<path class="st1" d="M345.3,104.1V35.9"/>
	<path class="st1" d="M345.7,104.1V35.9"/>
	<path class="st1" d="M346,104.1V35.9"/>
	<path class="st1" d="M346.3,104.1V35.9"/>
	<path class="st2" d="M346.7,104.1V35.9"/>
	<path class="st1" d="M347,104.1V35.9"/>
	<path class="st1" d="M347.4,104.1V35.9"/>
	<path class="st1" d="M347.7,104.1V35.9"/>
	<path class="st1" d="M348,104.1V35.9"/>
	<path class="st1" d="M348.4,104.1V35.9"/>
	<path class="st1" d="M348.7,104.1V35.9"/>
	<path class="st1" d="M349,104.1V35.9"/>
	<path class="st1" d="M349.4,104.1V35.9"/>
	<path class="st1" d="M349.7,104.1V35.9"/>
	<path class="st1" d="M350,104.1V35.9"/>
	<path class="st1" d="M350.4,104.1V35.9"/>
	<path class="st1" d="M350.7,104.1V35.9"/>
	<path class="st1" d="M351,104.1V35.9"/>
	<path class="st1" d="M351.4,104.1V35.9"/>
	<path class="st1" d="M351.7,104.1V35.9"/>
	<path class="st1" d="M352,104.1V35.9"/>
	<path class="st1" d="M352.4,104.1V35.9"/>
	<path class="st1" d="M352.7,104.1V35.9"/>
	<path class="st1" d="M353,104.1V35.9"/>
	<path class="st1" d="M353.4,104.1V35.9"/>
	<path class="st1" d="M353.7,104.1V35.9"/>
	<path class="st1" d="M354.1,104.1V35.9"/>
	<path class="st1" d="M354.4,104.1V35.9"/>
	<path class="st1" d="M354.7,104.1V35.9"/>
	<path class="st1" d="M355.1,104.1V35.9"/>
	<path class="st1" d="M355.4,104.1V35.9"/>
	<path class="st1" d="M355.7,104.1V35.9"/>
	<path class="st1" d="M356.1,104.1V35.9"/>
	<path class="st1" d="M356.4,104.1V35.9"/>
	<path class="st1" d="M356.7,104.1V35.9"/>
	<path class="st1" d="M357.1,104.1V35.9"/>
	<path class="st1" d="M357.4,104.1V35.9"/>
	<path class="st1" d="M357.7,104.1V35.9"/>
	<path class="st1" d="M358.1,104.1V35.9"/>
	<path class="st1" d="M358.4,104.1V35.9"/>
	<path class="st1" d="M358.7,104.1V35.9"/>
	<path class="st1" d="M359.1,104.1V35.9"/>
	<path class="st1" d="M359.4,104.1V35.9"/>
	<path class="st1" d="M359.7,104.1V35.9"/>
	<path class="st1" d="M360.1,104.1V35.9"/>
	<path class="st1" d="M360.4,104.1V35.9"/>
	<path class="st1" d="M360.8,104.1V35.9"/>
	<path class="st1" d="M361.1,104.1V35.9"/>
	<path class="st1" d="M361.4,104.1V35.9"/>
	<path class="st1" d="M361.8,104.1V35.9"/>
	<path class="st1" d="M362.1,104.1V35.9"/>
	<path class="st1" d="M362.4,104.1V35.9"/>
	<path class="st1" d="M362.8,104.1V35.9"/>
	<path class="st1" d="M363.1,104.1V35.9"/>
	<path class="st1" d="M363.4,104.1V35.9"/>
	<path class="st1" d="M363.8,104.1V35.9"/>
	<path class="st1" d="M364.1,104.1V35.9"/>
	<path class="st1" d="M364.4,104.1V35.9"/>
	<path class="st1" d="M364.8,104.1V35.9"/>
	<path class="st1" d="M365.1,104.1V35.9"/>
	<path class="st1" d="M365.4,104.1V35.9"/>
	<path class="st1" d="M365.8,104.1V35.9"/>
	<path class="st1" d="M366.1,104.1V35.9"/>
	<path class="st1" d="M366.4,104.1V35.9"/>
	<path class="st1" d="M366.8,104.1V35.9"/>
	<path class="st1" d="M367.1,104.1V35.9"/>
	<path class="st1" d="M367.4,104.1V35.9"/>
	<path class="st1" d="M367.8,104.1V35.9"/>
	<path class="st1" d="M368.1,104.1V35.9"/>
	<path class="st2" d="M368.5,104.1V35.9"/>
	<path class="st2" d="M368.8,104.1V35.9"/>
	<path class="st1" d="M369.1,104.1V35.9"/>
	<path class="st2" d="M369.5,104.1V35.9"/>
	<path class="st1" d="M369.8,104.1V35.9"/>
	<path class="st2" d="M370.1,104.1V35.9"/>
	<path class="st2" d="M370.5,104.1V35.9"/>
	<path class="st1" d="M370.8,104.1V35.9"/>
	<path class="st1" d="M371.1,104.1V35.9"/>
	<path class="st2" d="M371.5,104.1V35.9"/>
	<path class="st1" d="M371.8,104.1V35.9"/>
	<path class="st2" d="M372.1,104.1V35.9"/>
	<path class="st1" d="M372.5,104.1V35.9"/>
	<path class="st1" d="M372.8,104.1V35.9"/>
	<path class="st1" d="M373.1,104.1V35.9"/>
	<path class="st1" d="M373.5,104.1V35.9"/>
	<path class="st1" d="M373.8,104.1V35.9"/>
	<path class="st1" d="M374.1,104.1V35.9"/>
	<path class="st1" d="M374.5,104.1V35.9"/>
	<path class="st1" d="M374.8,104.1V35.9"/>
	<path class="st1" d="M375.2,104.1V35.9"/>
	<path class="st1" d="M375.5,104.1V35.9"/>
	<path class="st1" d="M375.8,104.1V35.9"/>
	<path class="st1" d="M376.2,104.1V35.9"/>
	<path class="st1" d="M376.5,104.1V35.9"/>
	<path class="st1" d="M376.8,104.1V35.9"/>
	<path class="st1" d="M377.2,104.1V35.9"/>
	<path class="st1" d="M377.5,104.1V35.9"/>
	<path class="st1" d="M377.8,104.1V35.9"/>
	<path class="st1" d="M378.2,104.1V35.9"/>
	<path class="st1" d="M378.5,104.1V35.9"/>
	<path class="st1" d="M378.8,104.1V35.9"/>
	<path class="st1" d="M379.2,104.1V35.9"/>
	<path class="st1" d="M379.5,104.1V35.9"/>
	<path class="st1" d="M379.8,104.1V35.9"/>
	<path class="st1" d="M380.2,104.1V35.9"/>
	<path class="st1" d="M380.5,104.1V35.9"/>
	<path class="st1" d="M380.8,104.1V35.9"/>
	<path class="st1" d="M381.2,104.1V35.9"/>
	<path class="st1" d="M381.5,104.1V35.9"/>
	<path class="st1" d="M381.9,104.1V35.9"/>
	<path class="st1" d="M382.2,104.1V35.9"/>
	<path class="st2" d="M382.5,104.1V35.9"/>
	<path class="st1" d="M382.9,104.1V35.9"/>
	<path class="st2" d="M383.2,104.1V35.9"/>
	<path class="st1" d="M383.5,104.1V35.9"/>
	<path class="st1" d="M383.9,104.1V35.9"/>
	<path class="st2" d="M384.2,104.1V35.9"/>
	<path class="st1" d="M384.5,104.1V35.9"/>
	<path class="st1" d="M384.9,104.1V35.9"/>
	<path class="st1" d="M385.2,104.1V35.9"/>
	<path class="st1" d="M385.5,104.1V35.9"/>
	<path class="st1" d="M385.9,104.1V35.9"/>
	<path class="st1" d="M386.2,104.1V35.9"/>
	<path class="st1" d="M386.5,104.1V35.9"/>
	<path class="st1" d="M386.9,104.1V35.9"/>
	<path class="st1" d="M387.2,104.1V35.9"/>
	<path class="st1" d="M387.5,104.1V35.9"/>
	<path class="st1" d="M387.9,104.1V35.9"/>
	<path class="st1" d="M388.2,104.1V35.9"/>
	<path class="st1" d="M388.6,104.1V35.9"/>
	<path class="st1" d="M388.9,104.1V35.9"/>
	<path class="st1" d="M389.2,104.1V35.9"/>
	<path class="st1" d="M389.6,104.1V35.9"/>
	<path class="st1" d="M389.9,104.1V35.9"/>
	<path class="st1" d="M390.2,104.1V35.9"/>
	<path class="st1" d="M390.6,104.1V35.9"/>
	<path class="st1" d="M390.9,104.1V35.9"/>
	<path class="st1" d="M391.2,104.1V35.9"/>
	<path class="st1" d="M391.6,104.1V35.9"/>
	<path class="st1" d="M391.9,104.1V35.9"/>
	<path class="st1" d="M392.2,104.1V35.9"/>
	<path class="st1" d="M392.6,104.1V35.9"/>
	<path class="st1" d="M392.9,104.1V35.9"/>
	<path class="st1" d="M393.2,104.1V35.9"/>
	<path class="st1" d="M393.6,104.1V35.9"/>
	<path class="st1" d="M393.9,104.1V35.9"/>
	<path class="st1" d="M394.2,104.1V35.9"/>
	<path class="st1" d="M394.6,104.1V35.9"/>
	<path class="st1" d="M394.9,104.1V35.9"/>
	<path class="st1" d="M395.2,104.1V35.9"/>
	<path class="st1" d="M395.6,104.1V35.9"/>
	<path class="st1" d="M395.9,104.1V35.9"/>
	<path class="st1" d="M396.3,104.1V35.9"/>
	<path class="st1" d="M396.6,104.1V35.9"/>
	<path class="st1" d="M396.9,104.1V35.9"/>
	<path class="st1" d="M397.3,104.1V35.9"/>
	<path class="st1" d="M397.6,104.1V35.9"/>
	<path class="st1" d="M397.9,104.1V35.9"/>
	<path class="st1" d="M398.3,104.1V35.9"/>
	<path class="st1" d="M398.6,104.1V35.9"/>
	<path class="st1" d="M398.9,104.1V35.9"/>
	<path class="st1" d="M399.3,104.1V35.9"/>
	<path class="st1" d="M399.6,104.1V35.9"/>
	<path class="st1" d="M399.9,104.1V35.9"/>
	<path class="st1" d="M400.3,104.1V35.9"/>
	<path class="st1" d="M400.6,104.1V35.9"/>
	<path class="st1" d="M400.9,104.1V35.9"/>
	<path class="st1" d="M401.3,104.1V35.9"/>
	<path class="st1" d="M401.6,104.1V35.9"/>
	<path class="st1" d="M401.9,104.1V35.9"/>
	<path class="st1" d="M402.3,104.1V35.9"/>
	<path class="st1" d="M402.6,104.1V35.9"/>
	<path class="st1" d="M403,104.1V35.9"/>
	<path class="st1" d="M403.3,104.1V35.9"/>
	<path class="st1" d="M403.6,104.1V35.9"/>
	<path class="st1" d="M404,104.1V35.9"/>
	<path class="st1" d="M404.3,104.1V35.9"/>
	<path class="st1" d="M404.6,104.1V35.9"/>
	<path class="st1" d="M405,104.1V35.9"/>
	<path class="st1" d="M405.3,104.1V35.9"/>
	<path class="st1" d="M405.6,104.1V35.9"/>
	<path class="st1" d="M406,104.1V35.9"/>
	<path class="st1" d="M406.3,104.1V35.9"/>
	<path class="st1" d="M406.6,104.1V35.9"/>
	<path class="st1" d="M407,104.1V35.9"/>
	<path class="st1" d="M407.3,104.1V35.9"/>
	<path class="st1" d="M407.6,104.1V35.9"/>
	<path class="st1" d="M408,104.1V35.9"/>
	<path class="st1" d="M408.3,104.1V35.9"/>
	<path class="st1" d="M408.6,104.1V35.9"/>
	<path class="st1" d="M409,104.1V35.9"/>
	<path class="st1" d="M409.3,104.1V35.9"/>
	<path class="st1" d="M409.7,104.1V35.9"/>
	<path class="st1" d="M410,104.1V35.9"/>
	<path class="st1" d="M410.3,104.1V35.9"/>
	<path class="st1" d="M410.7,104.1V35.9"/>
	<path class="st1" d="M411,104.1V35.9"/>
	<path class="st1" d="M411.3,104.1V35.9"/>
	<path class="st1" d="M411.7,104.1V35.9"/>
	<path class="st1" d="M412,104.1V35.9"/>
	<path class="st1" d="M412.3,104.1V35.9"/>
	<path class="st1" d="M412.7,104.1V35.9"/>
	<path class="st1" d="M413,104.1V35.9"/>
	<path class="st1" d="M413.3,104.1V35.9"/>
	<path class="st1" d="M413.7,104.1V35.9"/>
	<path class="st1" d="M414,104.1V35.9"/>
	<path class="st1" d="M414.3,104.1V35.9"/>
	<path class="st1" d="M414.7,104.1V35.9"/>
	<path class="st1" d="M415,104.1V35.9"/>
	<path class="st1" d="M415.3,104.1V35.9"/>
	<path class="st1" d="M415.7,104.1V35.9"/>
	<path class="st1" d="M416,104.1V35.9"/>
	<path class="st1" d="M416.3,104.1V35.9"/>
	<path class="st1" d="M416.7,104.1V35.9"/>
	<path class="st1" d="M417,104.1V35.9"/>
	<path class="st1" d="M417.4,104.1V35.9"/>
	<path class="st1" d="M417.7,104.1V35.9"/>
	<path class="st1" d="M418,104.1V35.9"/>
	<path class="st1" d="M418.4,104.1V35.9"/>
	<path class="st1" d="M418.7,104.1V35.9"/>
	<path class="st1" d="M419,104.1V35.9"/>
	<path class="st1" d="M419.4,104.1V35.9"/>
	<path class="st1" d="M419.7,104.1V35.9"/>
	<path class="st1" d="M420,104.1V35.9"/>
	<path class="st1" d="M420.4,104.1V35.9"/>
	<path class="st1" d="M420.7,104.1V35.9"/>
	<path class="st1" d="M421,104.1V35.9"/>
	<path class="st1" d="M421.4,104.1V35.9"/>
	<path class="st1" d="M421.7,104.1V35.9"/>
	<path class="st1" d="M422,104.1V35.9"/>
	<path class="st1" d="M422.4,104.1V35.9"/>
	<path class="st1" d="M422.7,104.1V35.9"/>
	<path class="st1" d="M423,104.1V35.9"/>
	<path class="st1" d="M423.4,104.1V35.9"/>
	<path class="st1" d="M423.7,104.1V35.9"/>
	<path class="st1" d="M424.1,104.1V35.9"/>
	<path class="st1" d="M424.4,104.1V35.9"/>
	<path class="st1" d="M424.7,104.1V35.9"/>
	<path class="st1" d="M425.1,104.1V35.9"/>
	<path class="st1" d="M425.4,104.1V35.9"/>
	<path class="st1" d="M425.7,104.1V35.9"/>
	<path class="st1" d="M426.1,104.1V35.9"/>
	<path class="st1" d="M426.4,104.1V35.9"/>
	<path class="st1" d="M426.7,104.1V35.9"/>
	<path class="st1" d="M427.1,104.1V35.9"/>
	<path class="st1" d="M427.4,104.1V35.9"/>
	<path class="st1" d="M427.7,104.1V35.9"/>
	<path class="st1" d="M428.1,104.1V35.9"/>
	<path class="st1" d="M428.4,104.1V35.9"/>
	<path class="st1" d="M428.7,104.1V35.9"/>
	<path class="st1" d="M429.1,104.1V35.9"/>
	<path class="st1" d="M429.4,104.1V35.9"/>
	<path class="st1" d="M429.7,104.1V35.9"/>
	<path class="st1" d="M430.1,104.1V35.9"/>
	<path class="st1" d="M430.4,104.1V35.9"/>
	<path class="st1" d="M430.8,104.1V35.9"/>
	<path class="st1" d="M431.1,104.1V35.9"/>
	<path class="st1" d="M431.4,104.1V35.9"/>
	<path class="st1" d="M431.8,104.1V35.9"/>
	<path class="st1" d="M432.1,104.1V35.9"/>
	<path class="st1" d="M432.4,104.1V35.9"/>
	<path class="st1" d="M432.8,104.1V35.9"/>
	<path class="st1" d="M433.1,104.1V35.9"/>
	<path class="st1" d="M433.4,104.1V35.9"/>
	<path class="st1" d="M433.8,104.1V35.9"/>
	<path class="st1" d="M434.1,104.1V35.9"/>
	<path class="st1" d="M434.4,104.1V35.9"/>
	<path class="st1" d="M434.8,104.1V35.9"/>
	<path class="st1" d="M435.1,104.1V35.9"/>
	<path class="st1" d="M435.4,104.1V35.9"/>
	<path class="st1" d="M435.8,104.1V35.9"/>
	<path class="st1" d="M436.1,104.1V35.9"/>
	<path class="st1" d="M436.4,104.1V35.9"/>
	<path class="st1" d="M436.8,104.1V35.9"/>
	<path class="st1" d="M437.1,104.1V35.9"/>
	<path class="st1" d="M437.4,104.1V35.9"/>
	<path class="st1" d="M437.8,104.1V35.9"/>
	<path class="st1" d="M438.1,104.1V35.9"/>
	<path class="st1" d="M438.5,104.1V35.9"/>
	<path class="st1" d="M438.8,104.1V35.9"/>
	<path class="st1" d="M439.1,104.1V35.9"/>
	<path class="st1" d="M439.5,104.1V35.9"/>
	<path class="st1" d="M439.8,104.1V35.9"/>
	<path class="st1" d="M440.1,104.1V35.9"/>
	<path class="st1" d="M440.5,104.1V35.9"/>
	<path class="st1" d="M440.8,104.1V35.9"/>
	<path class="st1" d="M441.1,104.1V35.9"/>
	<path class="st1" d="M441.5,104.1V35.9"/>
	<path class="st1" d="M441.8,104.1V35.9"/>
	<path class="st1" d="M442.1,104.1V35.9"/>
	<path class="st1" d="M442.5,104.1V35.9"/>
	<path class="st1" d="M442.8,104.1V35.9"/>
	<path class="st1" d="M443.1,104.1V35.9"/>
	<path class="st1" d="M443.5,104.1V35.9"/>
	<path class="st1" d="M443.8,104.1V35.9"/>
	<path class="st1" d="M444.1,104.1V35.9"/>
	<path class="st1" d="M444.5,104.1V35.9"/>
	<path class="st1" d="M444.8,104.1V35.9"/>
	<path class="st1" d="M445.2,104.1V35.9"/>
	<path class="st1" d="M445.5,104.1V35.9"/>
	<path class="st1" d="M445.8,104.1V35.9"/>
	<path class="st1" d="M446.2,104.1V35.9"/>
	<path class="st1" d="M446.5,104.1V35.9"/>
	<path class="st1" d="M446.8,104.1V35.9"/>
	<path class="st1" d="M447.2,104.1V35.9"/>
	<path class="st1" d="M447.5,104.1V35.9"/>
	<path class="st1" d="M447.8,104.1V35.9"/>
	<path class="st1" d="M448.2,104.1V35.9"/>
	<path class="st1" d="M448.5,104.1V35.9"/>
	<path class="st1" d="M448.8,104.1V35.9"/>
	<path class="st1" d="M449.2,104.1V35.9"/>
	<path class="st2" d="M449.5,104.1V35.9"/>
	<path class="st1" d="M449.8,104.1V35.9"/>
	<path class="st1" d="M450.2,104.1V35.9"/>
	<path class="st1" d="M450.5,104.1V35.9"/>
	<path class="st1" d="M450.8,104.1V35.9"/>
	<path class="st1" d="M451.2,104.1V35.9"/>
	<path class="st1" d="M451.5,104.1V35.9"/>
	<path class="st1" d="M451.9,104.1V35.9"/>
	<path class="st1" d="M452.2,104.1V35.9"/>
	<path class="st1" d="M452.5,104.1V35.9"/>
	<path class="st1" d="M452.9,104.1V35.9"/>
	<path class="st1" d="M453.2,104.1V35.9"/>
	<path class="st1" d="M453.5,104.1V35.9"/>
	<path class="st1" d="M453.9,104.1V35.9"/>
	<path class="st1" d="M454.2,104.1V35.9"/>
	<path class="st1" d="M454.5,104.1V35.9"/>
	<path class="st1" d="M454.9,104.1V35.9"/>
	<path class="st1" d="M455.2,104.1V35.9"/>
	<path class="st1" d="M455.5,104.1V35.9"/>
	<path class="st1" d="M455.9,104.1V35.9"/>
	<path class="st1" d="M456.2,104.1V35.9"/>
	<path class="st1" d="M456.5,104.1V35.9"/>
	<path class="st1" d="M456.9,104.1V35.9"/>
	<path class="st1" d="M457.2,104.1V35.9"/>
	<path class="st1" d="M457.5,104.1V35.9"/>
	<path class="st1" d="M457.9,104.1V35.9"/>
	<path class="st1" d="M458.2,104.1V35.9"/>
	<path class="st1" d="M458.6,104.1V35.9"/>
	<path class="st1" d="M458.9,104.1V35.9"/>
	<path class="st1" d="M459.2,104.1V35.9"/>
	<path class="st2" d="M459.6,104.1V35.9"/>
	<path class="st1" d="M459.9,104.1V35.9"/>
	<path class="st1" d="M460.2,104.1V35.9"/>
	<path class="st1" d="M460.6,104.1V35.9"/>
	<path class="st1" d="M460.9,104.1V35.9"/>
	<path class="st1" d="M461.2,104.1V35.9"/>
	<path class="st1" d="M461.6,104.1V35.9"/>
	<path class="st1" d="M461.9,104.1V35.9"/>
	<path class="st1" d="M462.2,104.1V35.9"/>
	<path class="st1" d="M462.6,104.1V35.9"/>
	<path class="st1" d="M462.9,104.1V35.9"/>
	<path class="st1" d="M463.2,104.1V35.9"/>
	<path class="st1" d="M463.6,104.1V35.9"/>
	<path class="st1" d="M463.9,104.1V35.9"/>
	<path class="st1" d="M464.2,104.1V35.9"/>
	<path class="st1" d="M464.6,104.1V35.9"/>
	<path class="st1" d="M464.9,104.1V35.9"/>
	<path class="st1" d="M465.2,104.1V35.9"/>
	<path class="st1" d="M465.6,104.1V35.9"/>
	<path class="st1" d="M465.9,104.1V35.9"/>
	<path class="st1" d="M466.3,104.1V35.9"/>
	<path class="st1" d="M466.6,104.1V35.9"/>
	<path class="st1" d="M466.9,104.1V35.9"/>
	<path class="st1" d="M467.3,104.1V35.9"/>
	<path class="st1" d="M467.6,104.1V35.9"/>
	<path class="st1" d="M467.9,104.1V35.9"/>
	<path class="st1" d="M468.3,104.1V35.9"/>
	<path class="st2" d="M468.6,104.1V35.9"/>
	<path class="st1" d="M468.9,104.1V35.9"/>
	<path class="st1" d="M469.3,104.1V35.9"/>
	<path class="st1" d="M469.6,104.1V35.9"/>
	<path class="st1" d="M469.9,104.1V35.9"/>
	<path class="st1" d="M470.3,104.1V35.9"/>
	<path class="st1" d="M470.6,104.1V35.9"/>
	<path class="st1" d="M470.9,104.1V35.9"/>
	<path class="st1" d="M471.3,104.1V35.9"/>
	<path class="st1" d="M471.6,104.1V35.9"/>
	<path class="st1" d="M471.9,104.1V35.9"/>
	<path class="st1" d="M472.3,104.1V35.9"/>
	<path class="st1" d="M472.6,104.1V35.9"/>
	<path class="st1" d="M473,104.1V35.9"/>
	<path class="st1" d="M473.3,104.1V35.9"/>
	<path class="st1" d="M473.6,104.1V35.9"/>
	<path class="st1" d="M474,104.1V35.9"/>
	<path class="st1" d="M474.3,104.1V35.9"/>
	<path class="st2" d="M474.6,104.1V35.9"/>
	<path class="st1" d="M475,104.1V35.9"/>
	<path class="st1" d="M475.3,104.1V35.9"/>
	<path class="st1" d="M475.6,104.1V35.9"/>
	<path class="st1" d="M476,104.1V35.9"/>
	<path class="st1" d="M476.3,104.1V35.9"/>
	<path class="st1" d="M476.6,104.1V35.9"/>
	<path class="st1" d="M477,104.1V35.9"/>
	<path class="st1" d="M477.3,104.1V35.9"/>
	<path class="st1" d="M477.6,104.1V35.9"/>
	<path class="st1" d="M478,104.1V35.9"/>
	<path class="st1" d="M478.3,104.1V35.9"/>
	<path class="st1" d="M478.6,104.1V35.9"/>
	<path class="st1" d="M479,104.1V35.9"/>
	<path class="st1" d="M479.3,104.1V35.9"/>
	<path class="st1" d="M479.7,104.1V35.9"/>
	<path class="st1" d="M480,104.1V35.9"/>
	<path class="st2" d="M480.3,104.1V35.9"/>
	<path class="st2" d="M480.7,104.1V35.9"/>
	<path class="st1" d="M481,104.1V35.9"/>
	<path class="st1" d="M481.3,104.1V35.9"/>
	<path class="st1" d="M481.7,104.1V35.9"/>
	<path class="st1" d="M482,104.1V35.9"/>
	<path class="st1" d="M482.3,104.1V35.9"/>
	<path class="st1" d="M482.7,104.1V35.9"/>
	<path class="st1" d="M483,104.1V35.9"/>
	<path class="st1" d="M483.3,104.1V35.9"/>
	<path class="st2" d="M483.7,104.1V35.9"/>
	<path class="st1" d="M484,104.1V35.9"/>
	<path class="st1" d="M484.3,104.1V35.9"/>
	<path class="st1" d="M484.7,104.1V35.9"/>
	<path class="st1" d="M485,104.1V35.9"/>
	<path class="st1" d="M485.3,104.1V35.9"/>
	<path class="st1" d="M485.7,104.1V35.9"/>
	<path class="st1" d="M486,104.1V35.9"/>
	<path class="st1" d="M486.3,104.1V35.9"/>
	<path class="st1" d="M486.7,104.1V35.9"/>
	<path class="st1" d="M487,104.1V35.9"/>
	<path class="st1" d="M487.4,104.1V35.9"/>
	<path class="st1" d="M487.7,104.1V35.9"/>
	<path class="st2" d="M488,104.1V35.9"/>
	<path class="st1" d="M488.4,104.1V35.9"/>
	<path class="st1" d="M488.7,104.1V35.9"/>
	<path class="st1" d="M489,104.1V35.9"/>
	<path class="st1" d="M489.4,104.1V35.9"/>
	<path class="st1" d="M489.7,104.1V35.9"/>
	<path class="st1" d="M490,104.1V35.9"/>
	<path class="st2" d="M490.4,104.1V35.9"/>
	<path class="st2" d="M490.7,104.1V35.9"/>
	<path class="st1" d="M491,104.1V35.9"/>
	<path class="st1" d="M491.4,104.1V35.9"/>
	<path class="st1" d="M491.7,104.1V35.9"/>
	<path class="st1" d="M492,104.1V35.9"/>
	<path class="st1" d="M492.4,104.1V35.9"/>
	<path class="st1" d="M492.7,104.1V35.9"/>
	<path class="st1" d="M493,104.1V35.9"/>
	<path class="st1" d="M493.4,104.1V35.9"/>
	<path class="st1" d="M493.7,104.1V35.9"/>
	<path class="st1" d="M494.1,104.1V35.9"/>
	<path class="st1" d="M494.4,104.1V35.9"/>
	<path class="st1" d="M494.7,104.1V35.9"/>
	<path class="st1" d="M495.1,104.1V35.9"/>
	<path class="st1" d="M495.4,104.1V35.9"/>
	<path class="st1" d="M495.7,104.1V35.9"/>
	<path class="st1" d="M496.1,104.1V35.9"/>
	<path class="st1" d="M496.4,104.1V35.9"/>
	<path class="st1" d="M496.7,104.1V35.9"/>
	<path class="st1" d="M497.1,104.1V35.9"/>
	<path class="st1" d="M497.4,104.1V35.9"/>
	<path class="st1" d="M497.7,104.1V35.9"/>
	<path class="st1" d="M498.1,104.1V35.9"/>
	<path class="st1" d="M498.4,104.1V35.9"/>
	<path class="st1" d="M498.7,104.1V35.9"/>
	<path class="st2" d="M499.1,104.1V35.9"/>
	<path class="st1" d="M499.4,104.1V35.9"/>
	<path class="st1" d="M499.7,104.1V35.9"/>
	<path class="st1" d="M500.1,104.1V35.9"/>
	<path class="st1" d="M500.4,104.1V35.9"/>
	<path class="st1" d="M500.8,104.1V35.9"/>
	<path class="st1" d="M501.1,104.1V35.9"/>
	<path class="st1" d="M501.4,104.1V35.9"/>
	<path class="st2" d="M501.8,104.1V35.9"/>
	<path class="st2" d="M502.1,104.1V35.9"/>
	<path class="st2" d="M502.4,104.1V35.9"/>
	<path class="st1" d="M502.8,104.1V35.9"/>
	<path class="st1" d="M503.1,104.1V35.9"/>
	<path class="st1" d="M503.4,104.1V35.9"/>
	<path class="st1" d="M503.8,104.1V35.9"/>
	<path class="st1" d="M504.1,104.1V35.9"/>
	<path class="st1" d="M504.4,104.1V35.9"/>
	<path class="st1" d="M504.8,104.1V35.9"/>
	<path class="st1" d="M505.1,104.1V35.9"/>
	<path class="st1" d="M505.4,104.1V35.9"/>
	<path class="st1" d="M505.8,104.1V35.9"/>
	<path class="st1" d="M506.1,104.1V35.9"/>
	<path class="st1" d="M506.4,104.1V35.9"/>
	<path class="st1" d="M506.8,104.1V35.9"/>
	<path class="st1" d="M507.1,104.1V35.9"/>
	<path class="st1" d="M507.4,104.1V35.9"/>
	<path class="st1" d="M507.8,104.1V35.9"/>
	<path class="st1" d="M508.1,104.1V35.9"/>
	<path class="st1" d="M508.5,104.1V35.9"/>
	<path class="st1" d="M508.8,104.1V35.9"/>
	<path class="st1" d="M509.1,104.1V35.9"/>
	<path class="st1" d="M509.5,104.1V35.9"/>
	<path class="st1" d="M509.8,104.1V35.9"/>
	<path class="st1" d="M510.1,104.1V35.9"/>
	<path class="st1" d="M510.5,104.1V35.9"/>
	<path class="st1" d="M510.8,104.1V35.9"/>
	<path class="st1" d="M511.1,104.1V35.9"/>
	<path class="st1" d="M511.5,104.1V35.9"/>
	<path class="st1" d="M511.8,104.1V35.9"/>
	<path class="st1" d="M512.1,104.1V35.9"/>
	<path class="st1" d="M512.5,104.1V35.9"/>
	<path class="st2" d="M512.8,104.1V35.9"/>
	<path class="st1" d="M513.1,104.1V35.9"/>
	<path class="st1" d="M513.5,104.1V35.9"/>
	<path class="st1" d="M513.8,104.1V35.9"/>
	<path class="st1" d="M514.1,104.1V35.9"/>
	<path class="st1" d="M514.5,104.1V35.9"/>
	<path class="st1" d="M514.8,104.1V35.9"/>
	<path class="st1" d="M515.2,104.1V35.9"/>
	<path class="st1" d="M515.5,104.1V35.9"/>
	<path class="st1" d="M515.8,104.1V35.9"/>
	<path class="st1" d="M516.2,104.1V35.9"/>
	<path class="st1" d="M516.5,104.1V35.9"/>
	<path class="st1" d="M516.8,104.1V35.9"/>
	<path class="st1" d="M517.2,104.1V35.9"/>
	<path class="st1" d="M517.5,104.1V35.9"/>
	<path class="st1" d="M517.8,104.1V35.9"/>
	<path class="st1" d="M518.2,104.1V35.9"/>
	<path class="st1" d="M518.5,104.1V35.9"/>
	<path class="st1" d="M518.8,104.1V35.9"/>
	<path class="st1" d="M519.2,104.1V35.9"/>
	<path class="st1" d="M519.5,104.1V35.9"/>
	<path class="st1" d="M519.8,104.1V35.9"/>
	<path class="st1" d="M520.2,104.1V35.9"/>
	<path class="st1" d="M520.5,104.1V35.9"/>
	<path class="st1" d="M520.8,104.1V35.9"/>
	<path class="st1" d="M521.2,104.1V35.9"/>
	<path class="st1" d="M521.5,104.1V35.9"/>
	<path class="st1" d="M521.9,104.1V35.9"/>
	<path class="st1" d="M522.2,104.1V35.9"/>
	<path class="st1" d="M522.5,104.1V35.9"/>
	<path class="st1" d="M522.9,104.1V35.9"/>
	<path class="st1" d="M523.2,104.1V35.9"/>
	<path class="st1" d="M523.5,104.1V35.9"/>
	<path class="st1" d="M523.9,104.1V35.9"/>
	<path class="st1" d="M524.2,104.1V35.9"/>
	<path class="st1" d="M524.5,104.1V35.9"/>
	<path class="st1" d="M524.9,104.1V35.9"/>
	<path class="st1" d="M525.2,104.1V35.9"/>
	<path class="st1" d="M525.5,104.1V35.9"/>
	<path class="st1" d="M525.9,104.1V35.9"/>
	<path class="st1" d="M526.2,104.1V35.9"/>
	<path class="st1" d="M526.5,104.1V35.9"/>
	<path class="st1" d="M526.9,104.1V35.9"/>
	<path class="st1" d="M527.2,104.1V35.9"/>
	<path class="st1" d="M527.5,104.1V35.9"/>
	<path class="st1" d="M527.9,104.1V35.9"/>
	<path class="st1" d="M528.2,104.1V35.9"/>
	<path class="st1" d="M528.6,104.1V35.9"/>
	<path class="st1" d="M528.9,104.1V35.9"/>
	<path class="st1" d="M529.2,104.1V35.9"/>
	<path class="st1" d="M529.6,104.1V35.9"/>
	<path class="st1" d="M529.9,104.1V35.9"/>
	<path class="st1" d="M530.2,104.1V35.9"/>
	<path class="st1" d="M530.6,104.1V35.9"/>
	<path class="st1" d="M530.9,104.1V35.9"/>
	<path class="st1" d="M531.2,104.1V35.9"/>
	<path class="st1" d="M531.6,104.1V35.9"/>
	<path class="st1" d="M531.9,104.1V35.9"/>
	<path class="st1" d="M532.2,104.1V35.9"/>
	<path class="st1" d="M532.6,104.1V35.9"/>
	<path class="st1" d="M532.9,104.1V35.9"/>
	<path class="st1" d="M533.2,104.1V35.9"/>
	<path class="st1" d="M533.6,104.1V35.9"/>
	<path class="st1" d="M533.9,104.1V35.9"/>
	<path class="st1" d="M534.2,104.1V35.9"/>
	<path class="st1" d="M534.6,104.1V35.9"/>
	<path class="st1" d="M534.9,104.1V35.9"/>
	<path class="st1" d="M535.2,104.1V35.9"/>
	<path class="st1" d="M535.6,104.1V35.9"/>
	<path class="st2" d="M535.9,104.1V35.9"/>
	<path class="st1" d="M536.3,104.1V35.9"/>
	<path class="st1" d="M536.6,104.1V35.9"/>
	<path class="st1" d="M536.9,104.1V35.9"/>
	<path class="st1" d="M537.3,104.1V35.9"/>
	<path class="st1" d="M537.6,104.1V35.9"/>
	<path class="st1" d="M537.9,104.1V35.9"/>
	<path class="st1" d="M538.3,104.1V35.9"/>
	<path class="st1" d="M538.6,104.1V35.9"/>
	<path class="st1" d="M538.9,104.1V35.9"/>
	<path class="st1" d="M539.3,104.1V35.9"/>
	<path class="st1" d="M539.6,104.1V35.9"/>
	<path class="st1" d="M539.9,104.1V35.9"/>
	<path class="st1" d="M540.3,104.1V35.9"/>
	<path class="st2" d="M540.6,104.1V35.9"/>
	<path class="st2" d="M540.9,104.1V35.9"/>
	<path class="st1" d="M541.3,104.1V35.9"/>
	<path class="st1" d="M541.6,104.1V35.9"/>
	<path class="st1" d="M541.9,104.1V35.9"/>
	<path class="st1" d="M542.3,104.1V35.9"/>
	<path class="st1" d="M542.6,104.1V35.9"/>
	<path class="st1" d="M543,104.1V35.9"/>
	<path class="st1" d="M543.3,104.1V35.9"/>
	<path class="st1" d="M543.6,104.1V35.9"/>
	<path class="st1" d="M544,104.1V35.9"/>
	<path class="st1" d="M544.3,104.1V35.9"/>
	<path class="st1" d="M544.6,104.1V35.9"/>
	<path class="st1" d="M545,104.1V35.9"/>
	<path class="st1" d="M545.3,104.1V35.9"/>
	<path class="st1" d="M545.6,104.1V35.9"/>
	<path class="st1" d="M546,104.1V35.9"/>
	<path class="st1" d="M546.3,104.1V35.9"/>
	<path class="st1" d="M546.6,104.1V35.9"/>
	<path class="st1" d="M547,104.1V35.9"/>
	<path class="st1" d="M547.3,104.1V35.9"/>
	<path class="st1" d="M547.6,104.1V35.9"/>
	<path class="st1" d="M548,104.1V35.9"/>
	<path class="st1" d="M548.3,104.1V35.9"/>
	<path class="st1" d="M548.6,104.1V35.9"/>
	<path class="st1" d="M549,104.1V35.9"/>
	<path class="st1" d="M549.3,104.1V35.9"/>
	<path class="st1" d="M549.7,104.1V35.9"/>
	<path class="st1" d="M550,104.1V35.9"/>
	<path class="st1" d="M550.3,104.1V35.9"/>
	<path class="st1" d="M550.7,104.1V35.9"/>
	<path class="st1" d="M551,104.1V35.9"/>
	<path class="st1" d="M551.3,104.1V35.9"/>
	<path class="st1" d="M551.7,104.1V35.9"/>
	<path class="st1" d="M552,104.1V35.9"/>
	<path class="st1" d="M552.3,104.1V35.9"/>
	<path class="st1" d="M552.7,104.1V35.9"/>
	<path class="st1" d="M553,104.1V35.9"/>
	<path class="st1" d="M553.3,104.1V35.9"/>
	<path class="st1" d="M553.7,104.1V35.9"/>
	<path class="st1" d="M554,104.1V35.9"/>
	<path class="st1" d="M554.3,104.1V35.9"/>
	<path class="st1" d="M554.7,104.1V35.9"/>
	<path class="st1" d="M555,104.1V35.9"/>
	<path class="st1" d="M555.3,104.1V35.9"/>
	<path class="st1" d="M555.7,104.1V35.9"/>
	<path class="st1" d="M556,104.1V35.9"/>
	<path class="st1" d="M556.3,104.1V35.9"/>
	<path class="st1" d="M556.7,104.1V35.9"/>
	<path class="st1" d="M557,104.1V35.9"/>
	<path class="st1" d="M557.4,104.1V35.9"/>
	<path class="st1" d="M557.7,104.1V35.9"/>
	<path class="st1" d="M558,104.1V35.9"/>
	<path class="st1" d="M558.4,104.1V35.9"/>
	<path class="st1" d="M558.7,104.1V35.9"/>
	<path class="st1" d="M559,104.1V35.9"/>
	<path class="st1" d="M559.4,104.1V35.9"/>
	<path class="st1" d="M559.7,104.1V35.9"/>
	<path class="st1" d="M560,104.1V35.9"/>
	<path class="st1" d="M560.4,104.1V35.9"/>
	<path class="st1" d="M560.7,104.1V35.9"/>
	<path class="st1" d="M561,104.1V35.9"/>
	<path class="st1" d="M561.4,104.1V35.9"/>
	<path class="st1" d="M561.7,104.1V35.9"/>
	<path class="st1" d="M562,104.1V35.9"/>
	<path class="st1" d="M562.4,104.1V35.9"/>
	<path class="st1" d="M562.7,104.1V35.9"/>
	<path class="st1" d="M563,104.1V35.9"/>
	<path class="st1" d="M563.4,104.1V35.9"/>
	<path class="st1" d="M563.7,104.1V35.9"/>
	<path class="st1" d="M564.1,104.1V35.9"/>
	<path class="st1" d="M564.4,104.1V35.9"/>
	<path class="st1" d="M564.7,104.1V35.9"/>
	<path class="st1" d="M565.1,104.1V35.9"/>
	<path class="st1" d="M565.4,104.1V35.9"/>
	<path class="st1" d="M565.7,104.1V35.9"/>
	<path class="st2" d="M566.1,104.1V35.9"/>
	<path class="st2" d="M566.4,104.1V35.9"/>
	<path class="st1" d="M566.7,104.1V35.9"/>
	<path class="st1" d="M567.1,104.1V35.9"/>
	<path class="st1" d="M567.4,104.1V35.9"/>
	<path class="st1" d="M567.7,104.1V35.9"/>
	<path class="st1" d="M568.1,104.1V35.9"/>
	<path class="st1" d="M568.4,104.1V35.9"/>
	<path class="st1" d="M568.7,104.1V35.9"/>
	<path class="st1" d="M569.1,104.1V35.9"/>
	<path class="st1" d="M569.4,104.1V35.9"/>
	<path class="st1" d="M569.7,104.1V35.9"/>
	<path class="st1" d="M570.1,104.1V35.9"/>
	<path class="st1" d="M570.4,104.1V35.9"/>
	<path class="st1" d="M570.8,104.1V35.9"/>
	<path class="st1" d="M571.1,104.1V35.9"/>
	<path class="st1" d="M571.4,104.1V35.9"/>
	<path class="st1" d="M571.8,104.1V35.9"/>
	<path class="st1" d="M572.1,104.1V35.9"/>
	<path class="st1" d="M572.4,104.1V35.9"/>
	<path class="st1" d="M572.8,104.1V35.9"/>
	<path class="st1" d="M573.1,104.1V35.9"/>
	<path class="st1" d="M573.4,104.1V35.9"/>
	<path class="st2" d="M573.8,104.1V35.9"/>
	<path class="st1" d="M574.1,104.1V35.9"/>
	<path class="st1" d="M574.4,104.1V35.9"/>
	<path class="st1" d="M574.8,104.1V35.9"/>
	<path class="st1" d="M575.1,104.1V35.9"/>
	<path class="st1" d="M575.4,104.1V35.9"/>
	<path class="st1" d="M575.8,104.1V35.9"/>
	<path class="st1" d="M576.1,104.1V35.9"/>
	<path class="st1" d="M576.4,104.1V35.9"/>
	<path class="st1" d="M576.8,104.1V35.9"/>
	<path class="st1" d="M577.1,104.1V35.9"/>
	<path class="st1" d="M577.4,104.1V35.9"/>
	<path class="st1" d="M577.8,104.1V35.9"/>
	<path class="st1" d="M578.1,104.1V35.9"/>
	<path class="st1" d="M578.5,104.1V35.9"/>
	<path class="st1" d="M578.8,104.1V35.9"/>
	<path class="st1" d="M579.1,104.1V35.9"/>
	<path class="st1" d="M579.5,104.1V35.9"/>
	<path class="st1" d="M579.8,104.1V35.9"/>
	<path class="st1" d="M580.1,104.1V35.9"/>
	<path class="st1" d="M580.5,104.1V35.9"/>
	<path class="st1" d="M580.8,104.1V35.9"/>
	<path class="st1" d="M581.1,104.1V35.9"/>
	<path class="st1" d="M581.5,104.1V35.9"/>
	<path class="st1" d="M581.8,104.1V35.9"/>
	<path class="st1" d="M582.1,104.1V35.9"/>
	<path class="st1" d="M582.5,104.1V35.9"/>
	<path class="st1" d="M582.8,104.1V35.9"/>
	<path class="st1" d="M583.1,104.1V35.9"/>
	<path class="st1" d="M583.5,104.1V35.9"/>
	<path class="st1" d="M583.8,104.1V35.9"/>
	<path class="st1" d="M584.1,104.1V35.9"/>
	<path class="st1" d="M584.5,104.1V35.9"/>
	<path class="st1" d="M584.8,104.1V35.9"/>
	<path class="st1" d="M585.2,104.1V35.9"/>
	<path class="st1" d="M585.5,104.1V35.9"/>
	<path class="st1" d="M585.8,104.1V35.9"/>
	<path class="st1" d="M586.2,104.1V35.9"/>
	<path class="st1" d="M586.5,104.1V35.9"/>
	<path class="st1" d="M586.8,104.1V35.9"/>
	<path class="st1" d="M587.2,104.1V35.9"/>
	<path class="st1" d="M587.5,104.1V35.9"/>
	<path class="st1" d="M587.8,104.1V35.9"/>
	<path class="st1" d="M588.2,104.1V35.9"/>
	<path class="st1" d="M588.5,104.1V35.9"/>
	<path class="st1" d="M588.8,104.1V35.9"/>
	<path class="st1" d="M589.2,104.1V35.9"/>
	<path class="st1" d="M589.5,104.1V35.9"/>
	<path class="st1" d="M589.8,104.1V35.9"/>
	<path class="st1" d="M590.2,104.1V35.9"/>
	<path class="st1" d="M590.5,104.1V35.9"/>
	<path class="st1" d="M590.8,104.1V35.9"/>
	<path class="st1" d="M591.2,104.1V35.9"/>
	<path class="st1" d="M591.5,104.1V35.9"/>
	<path class="st1" d="M591.9,104.1V35.9"/>
	<path class="st1" d="M592.2,104.1V35.9"/>
	<path class="st1" d="M592.5,104.1V35.9"/>
	<path class="st1" d="M592.9,104.1V35.9"/>
	<path class="st1" d="M593.2,104.1V35.9"/>
	<path class="st1" d="M593.5,104.1V35.9"/>
	<path class="st1" d="M593.9,104.1V35.9"/>
	<path class="st1" d="M594.2,104.1V35.9"/>
	<path class="st1" d="M594.5,104.1V35.9"/>
	<path class="st1" d="M594.9,104.1V35.9"/>
	<path class="st1" d="M595.2,104.1V35.9"/>
	<path class="st1" d="M595.5,104.1V35.9"/>
	<path class="st1" d="M595.9,104.1V35.9"/>
	<path class="st1" d="M596.2,104.1V35.9"/>
	<path class="st1" d="M596.5,104.1V35.9"/>
	<path class="st1" d="M596.9,104.1V35.9"/>
	<path class="st2" d="M597.2,104.1V35.9"/>
	<path class="st2" d="M597.5,104.1V35.9"/>
	<path class="st1" d="M597.9,104.1V35.9"/>
	<path class="st1" d="M598.2,104.1V35.9"/>
	<path class="st1" d="M598.6,104.1V35.9"/>
	<path class="st1" d="M598.9,104.1V35.9"/>
	<path class="st1" d="M599.2,104.1V35.9"/>
	<path class="st1" d="M599.6,104.1V35.9"/>
	<path class="st1" d="M599.9,104.1V35.9"/>
	<path class="st1" d="M600.2,104.1V35.9"/>
	<path class="st1" d="M600.6,104.1V35.9"/>
	<path class="st1" d="M600.9,104.1V35.9"/>
	<path class="st1" d="M601.2,104.1V35.9"/>
	<path class="st2" d="M601.6,104.1V35.9"/>
	<path class="st1" d="M601.9,104.1V35.9"/>
	<path class="st1" d="M602.2,104.1V35.9"/>
	<path class="st1" d="M602.6,104.1V35.9"/>
	<path class="st1" d="M602.9,104.1V35.9"/>
	<path class="st1" d="M603.2,104.1V35.9"/>
	<path class="st1" d="M603.6,104.1V35.9"/>
	<path class="st1" d="M603.9,104.1V35.9"/>
	<path class="st1" d="M604.2,104.1V35.9"/>
	<path class="st1" d="M604.6,104.1V35.9"/>
	<path class="st1" d="M604.9,104.1V35.9"/>
	<path class="st1" d="M605.2,104.1V35.9"/>
	<path class="st1" d="M605.6,104.1V35.9"/>
	<path class="st1" d="M605.9,104.1V35.9"/>
	<path class="st1" d="M606.3,104.1V35.9"/>
	<path class="st1" d="M606.6,104.1V35.9"/>
	<path class="st1" d="M606.9,104.1V35.9"/>
	<path class="st1" d="M607.3,104.1V35.9"/>
	<path class="st1" d="M607.6,104.1V35.9"/>
	<path class="st2" d="M607.9,104.1V35.9"/>
	<path class="st1" d="M608.3,104.1V35.9"/>
	<path class="st1" d="M608.6,104.1V35.9"/>
	<path class="st1" d="M608.9,104.1V35.9"/>
	<path class="st1" d="M609.3,104.1V35.9"/>
	<path class="st1" d="M609.6,104.1V35.9"/>
	<path class="st1" d="M609.9,104.1V35.9"/>
	<path class="st1" d="M610.3,104.1V35.9"/>
	<path class="st1" d="M610.6,104.1V35.9"/>
	<path class="st2" d="M610.9,104.1V35.9"/>
	<path class="st1" d="M611.3,104.1V35.9"/>
	<path class="st1" d="M611.6,104.1V35.9"/>
	<path class="st2" d="M611.9,104.1V35.9"/>
	<path class="st1" d="M612.3,104.1V35.9"/>
	<path class="st2" d="M612.6,104.1V35.9"/>
	<path class="st1" d="M613,104.1V35.9"/>
	<path class="st1" d="M613.3,104.1V35.9"/>
	<path class="st1" d="M613.6,104.1V35.9"/>
	<path class="st1" d="M614,104.1V35.9"/>
	<path class="st1" d="M614.3,104.1V35.9"/>
	<path class="st1" d="M614.6,104.1V35.9"/>
	<path class="st1" d="M615,104.1V35.9"/>
	<path class="st1" d="M615.3,104.1V35.9"/>
	<path class="st1" d="M615.6,104.1V35.9"/>
	<path class="st1" d="M616,104.1V35.9"/>
	<path class="st1" d="M616.3,104.1V35.9"/>
	<path class="st1" d="M616.6,104.1V35.9"/>
	<path class="st1" d="M617,104.1V35.9"/>
	<path class="st1" d="M617.3,104.1V35.9"/>
	<path class="st1" d="M617.6,104.1V35.9"/>
	<path class="st1" d="M618,104.1V35.9"/>
	<path class="st1" d="M618.3,104.1V35.9"/>
	<path class="st1" d="M618.6,104.1V35.9"/>
	<path class="st1" d="M619,104.1V35.9"/>
	<path class="st1" d="M619.3,104.1V35.9"/>
	<path class="st1" d="M619.7,104.1V35.9"/>
	<path class="st1" d="M620,104.1V35.9"/>
	<path class="st1" d="M620.3,104.1V35.9"/>
	<path class="st1" d="M620.7,104.1V35.9"/>
	<path class="st1" d="M621,104.1V35.9"/>
	<path class="st1" d="M621.3,104.1V35.9"/>
	<path class="st1" d="M621.7,104.1V35.9"/>
	<path class="st1" d="M622,104.1V35.9"/>
	<path class="st1" d="M622.3,104.1V35.9"/>
	<path class="st1" d="M622.7,104.1V35.9"/>
	<path class="st1" d="M623,104.1V35.9"/>
	<path class="st1" d="M623.3,104.1V35.9"/>
	<path class="st1" d="M623.7,104.1V35.9"/>
	<path class="st1" d="M624,104.1V35.9"/>
	<path class="st1" d="M624.3,104.1V35.9"/>
	<path class="st1" d="M624.7,104.1V35.9"/>
	<path class="st1" d="M625,104.1V35.9"/>
	<path class="st1" d="M625.3,104.1V35.9"/>
	<path class="st1" d="M625.7,104.1V35.9"/>
	<path class="st1" d="M626,104.1V35.9"/>
	<path class="st2" d="M626.3,104.1V35.9"/>
	<path class="st1" d="M626.7,104.1V35.9"/>
	<path class="st2" d="M627,104.1V35.9"/>
	<path class="st1" d="M627.4,104.1V35.9"/>
	<path class="st2" d="M627.7,104.1V35.9"/>
	<path class="st1" d="M628,104.1V35.9"/>
	<path class="st1" d="M628.4,104.1V35.9"/>
	<path class="st1" d="M628.7,104.1V35.9"/>
	<path class="st1" d="M629,104.1V35.9"/>
	<path class="st1" d="M629.4,104.1V35.9"/>
	<path class="st1" d="M629.7,104.1V35.9"/>
	<path class="st1" d="M630,104.1V35.9"/>
	<path class="st1" d="M630.4,104.1V35.9"/>
	<path class="st1" d="M630.7,104.1V35.9"/>
	<path class="st1" d="M631,104.1V35.9"/>
	<path class="st1" d="M631.4,104.1V35.9"/>
	<path class="st1" d="M631.7,104.1V35.9"/>
	<path class="st1" d="M632,104.1V35.9"/>
	<path class="st1" d="M632.4,104.1V35.9"/>
	<path class="st1" d="M632.7,104.1V35.9"/>
	<path class="st1" d="M633,104.1V35.9"/>
	<path class="st1" d="M633.4,104.1V35.9"/>
	<path class="st1" d="M633.7,104.1V35.9"/>
	<path class="st1" d="M634.1,104.1V35.9"/>
	<path class="st1" d="M634.4,104.1V35.9"/>
	<path class="st1" d="M634.7,104.1V35.9"/>
	<path class="st1" d="M635.1,104.1V35.9"/>
	<path class="st1" d="M635.4,104.1V35.9"/>
	<path class="st1" d="M635.7,104.1V35.9"/>
	<path class="st1" d="M636.1,104.1V35.9"/>
	<path class="st1" d="M636.4,104.1V35.9"/>
	<path class="st1" d="M636.7,104.1V35.9"/>
	<path class="st1" d="M637.1,104.1V35.9"/>
	<path class="st1" d="M637.4,104.1V35.9"/>
	<path class="st1" d="M637.7,104.1V35.9"/>
	<path class="st1" d="M638.1,104.1V35.9"/>
	<path class="st1" d="M638.4,104.1V35.9"/>
	<path class="st1" d="M638.7,104.1V35.9"/>
	<path class="st1" d="M639.1,104.1V35.9"/>
	<path class="st1" d="M639.4,104.1V35.9"/>
	<path class="st1" d="M639.7,104.1V35.9"/>
	<path class="st1" d="M640.1,104.1V35.9"/>
	<path class="st1" d="M640.4,104.1V35.9"/>
	<path class="st1" d="M640.8,104.1V35.9"/>
	<path class="st1" d="M641.1,104.1V35.9"/>
	<path class="st1" d="M641.4,104.1V35.9"/>
	<path class="st1" d="M641.8,104.1V35.9"/>
	<path class="st1" d="M642.1,104.1V35.9"/>
	<path class="st1" d="M642.4,104.1V35.9"/>
	<path class="st1" d="M642.8,104.1V35.9"/>
	<path class="st1" d="M643.1,104.1V35.9"/>
	<path class="st1" d="M643.4,104.1V35.9"/>
	<path class="st1" d="M643.8,104.1V35.9"/>
	<path class="st1" d="M644.1,104.1V35.9"/>
	<path class="st1" d="M644.4,104.1V35.9"/>
	<path class="st1" d="M644.8,104.1V35.9"/>
	<path class="st1" d="M645.1,104.1V35.9"/>
	<path class="st1" d="M645.4,104.1V35.9"/>
	<path class="st1" d="M645.8,104.1V35.9"/>
	<path class="st1" d="M646.1,104.1V35.9"/>
	<path class="st1" d="M646.4,104.1V35.9"/>
	<path class="st1" d="M646.8,104.1V35.9"/>
	<path class="st1" d="M647.1,104.1V35.9"/>
	<path class="st1" d="M647.4,104.1V35.9"/>
	<path class="st1" d="M647.8,104.1V35.9"/>
	<path class="st1" d="M648.1,104.1V35.9"/>
	<path class="st1" d="M648.5,104.1V35.9"/>
	<path class="st1" d="M648.8,104.1V35.9"/>
	<path class="st1" d="M649.1,104.1V35.9"/>
	<path class="st1" d="M649.5,104.1V35.9"/>
	<path class="st1" d="M649.8,104.1V35.9"/>
	<path class="st1" d="M650.1,104.1V35.9"/>
	<path class="st1" d="M650.5,104.1V35.9"/>
	<path class="st1" d="M650.8,104.1V35.9"/>
	<path class="st1" d="M651.1,104.1V35.9"/>
	<path class="st1" d="M651.5,104.1V35.9"/>
	<path class="st1" d="M651.8,104.1V35.9"/>
	<path class="st1" d="M652.1,104.1V35.9"/>
	<path class="st1" d="M652.5,104.1V35.9"/>
	<path class="st1" d="M652.8,104.1V35.9"/>
	<path class="st1" d="M653.1,104.1V35.9"/>
	<path class="st1" d="M653.5,104.1V35.9"/>
	<path class="st1" d="M653.8,104.1V35.9"/>
	<path class="st1" d="M654.1,104.1V35.9"/>
	<path class="st1" d="M654.5,104.1V35.9"/>
	<path class="st1" d="M654.8,104.1V35.9"/>
</g>
<polyline class="st3" points="39.4,35.9 39.4,27.5 48,27.5 48,35.9 "/>
<polyline class="st3" points="109.3,104.2 109.3,112.6 76,112.6 76,104.2 "/>
<text transform="matrix(1 0 0 1 18.8463 24.3647)" class="st4 st5">bersicht</text>
<text transform="matrix(1 0 0 1 70.4402 123.3391)" class="st4 st5">Mobilitt</text>
<polyline class="st3" points="183.1,104.2 183.1,112.6 180.2,112.6 180.2,104.2 "/>
<text transform="matrix(1 0 0 1 166.8006 123.6)" class="st4 st5">Arbeit</text>
<polyline class="st3" points="255.9,104.2 255.9,112.6 249.8,112.6 249.8,104.2 "/>
<text transform="matrix(1 0 0 1 234.7571 123.4695)" class="st4 st5">Arbeit</text>
<polyline class="st3" points="271,104.4 271,112.8 264.2,112.8 264.2,104.4 "/>
<polyline class="st3" points="279.6,104.4 279.6,112.8 275.8,112.8 275.8,104.4 "/>
<polyline class="st3" points="386.6,105.1 386.6,113.4 341.9,113.4 341.9,105.1 "/>
<text transform="matrix(1 0 0 1 244.8006 135.6)" class="st4 st5">Infrastruktur</text>
<text transform="matrix(1 0 0 1 346.2265 126.2827)" class="st4 st5">Bildung</text>
<text transform="matrix(1 0 0 1 290.8765 25.0756)" class="st4 st5">Infrastruktur</text>
<text transform="matrix(1 0 0 1 271.6049 124.8391)" class="st4 st5">Landwirtschaft</text>
<polyline class="st3" points="150,35.9 150,27.5 179.7,27.5 179.7,35.9 "/>
<text transform="matrix(1 0 0 1 142.4432 10.7275)"><tspan x="0" y="0" class="st4 st5">Umwelt- </tspan><tspan x="6" y="12" class="st4 st5">schutz</tspan></text>
<polyline class="st3" points="205.3,35.9 205.3,27.5 248.1,27.5 248.1,35.9 "/>
<text transform="matrix(1 0 0 1 215.6103 9.6275)"><tspan x="0" y="0" class="st4 st5">Infra- </tspan><tspan x="-5" y="14.4" class="st4 st5">struktur</tspan></text>
<polyline class="st3" points="257.9,35.9 257.9,27.5 264.1,27.5 264.1,35.9 "/>
<polyline class="st3" points="271.8,35.9 271.8,27.5 274.2,27.5 274.2,35.9 "/>
<polyline class="st3" points="317.2,35.6 317.2,27.3 319.6,27.3 319.6,35.6 "/>
<polyline class="st3" points="444.7,35.5 444.7,27.2 448.6,27.2 448.6,35.5 "/>
<text transform="matrix(0.7071 -0.7071 0.7071 0.7071 257.8906 28.9252)" class="st4 st5">Verwaltung</text>
<text transform="matrix(0.7071 -0.7071 0.7071 0.7071 276.1033 27.785)" class="st4 st5">Kultur</text>
<text transform="matrix(1 0 0 1 430.2429 24.2089)" class="st4 st5">Kultur</text>
</svg>
